<svg width="24" height="24" viewBox="0 0 24 24" fill="none" xmlns="http://www.w3.org/2000/svg">
<path d="M19.376 12.4153L8.777 19.4813C8.70171 19.5314 8.61423 19.5602 8.52389 19.5645C8.43355 19.5688 8.34373 19.5486 8.264 19.5059C8.18427 19.4632 8.1176 19.3997 8.07111 19.3221C8.02462 19.2445 8.00005 19.1558 8 19.0653V4.93334C8.00005 4.84289 8.02462 4.75416 8.07111 4.67658C8.1176 4.599 8.18427 4.53548 8.264 4.49279C8.34373 4.45011 8.43355 4.42984 8.52389 4.43416C8.61423 4.43849 8.70171 4.46723 8.777 4.51734L19.376 11.5833C19.4445 11.629 19.5006 11.6909 19.5395 11.7634C19.5783 11.836 19.5986 11.917 19.5986 11.9993C19.5986 12.0816 19.5783 12.1627 19.5395 12.2352C19.5006 12.3078 19.4445 12.3697 19.376 12.4153Z" fill="white"/>
</svg>
