<svg width="48" height="48" viewBox="0 0 48 48" fill="none" xmlns="http://www.w3.org/2000/svg">
<path d="M42.8568 26.7687C42.7695 26.6591 42.6515 26.5778 42.518 26.5353L40.259 25.8199C40.4022 24.4329 40.3642 23.0331 40.146 21.6559L42.3523 20.8201C42.5463 20.747 42.7015 20.5972 42.7815 20.4059C42.8631 20.216 42.8631 20.0009 42.7815 19.8111L39.8448 13.3052C39.7682 13.1202 39.6212 12.9733 39.4361 12.897C39.251 12.8207 39.0431 12.8213 38.8584 12.8986H38.8057L36.7124 13.9829C35.8366 12.9048 34.824 11.9455 33.7004 11.129L34.6718 8.97547C34.7528 8.79275 34.7578 8.58532 34.6858 8.39888C34.6137 8.21245 34.4705 8.06229 34.2877 7.98151L27.8873 5.60205H26.8105C26.6932 5.69012 26.6043 5.8105 26.5545 5.94843L25.8015 8.20741H25.5078V9.7134C25.7613 9.69598 26.0158 9.72144 26.2608 9.7887C26.6297 9.84673 26.9854 9.62562 27.0966 9.26913L27.7593 7.17581L32.9474 9.1863L32.0438 11.1591C31.9109 11.4866 32.0237 11.8625 32.3149 12.0627C33.6917 12.9709 34.9016 14.1095 35.8916 15.4286C36.1106 15.7302 36.5172 15.8262 36.8479 15.6545L38.8283 14.638L41.0873 19.683L39.0391 20.436C38.6971 20.5682 38.5 20.9275 38.5723 21.2869C38.8958 22.9013 38.9417 24.5591 38.7078 26.1889C38.6457 26.5604 38.8676 26.9207 39.2274 27.0323L41.3132 27.6874L39.3328 32.8604L37.3223 31.9945C36.9866 31.8449 36.592 31.9595 36.3886 32.2656C35.468 33.6376 34.3225 34.8443 33.0001 35.8348C32.6985 36.0537 32.6025 36.4603 32.7742 36.7911L33.8209 38.7338L28.7532 40.9928L28.0002 38.9672C27.8569 38.6099 27.4671 38.4183 27.0966 38.523C26.5811 38.6205 26.0608 38.6909 25.5379 38.7338V40.2398C25.9453 40.2256 26.3508 40.1777 26.7503 40.0967L27.5861 42.2804C27.6609 42.4715 27.8105 42.6238 28.0002 42.7021C28.1944 42.7881 28.4159 42.7881 28.6102 42.7021L35.1311 39.7955C35.328 39.7117 35.4799 39.548 35.5489 39.3454C35.6179 39.1428 35.5974 38.9204 35.4925 38.7338L34.4157 36.6555C35.4991 35.7807 36.4635 34.7682 37.2846 33.6436L39.4307 34.5999C39.6166 34.6906 39.8316 34.7009 40.0254 34.6282C40.2191 34.5556 40.3743 34.4064 40.4548 34.2158L42.8568 27.9208V26.7687Z" fill="url(#paint0_linear_395_112844)"/>
<path d="M32.316 24.0281C32.3014 20.0799 29.4356 16.7205 25.5391 16.084V17.59C28.6318 18.1722 30.872 20.8735 30.872 24.0205C30.872 27.1676 28.6318 29.8689 25.5391 30.4511V31.9571C29.4365 31.3331 32.3066 27.9752 32.316 24.0281Z" fill="url(#paint1_linear_395_112844)"/>
<path d="M24.4308 8.07963L19.9128 5.30108C19.6798 5.16657 19.3928 5.16657 19.1598 5.30108L10.1239 10.6473C9.88299 10.7719 9.72767 11.0164 9.71728 11.2874V16.6336L5.62099 18.7872C5.36242 18.9139 5.19874 19.177 5.19927 19.4649V28.5008C5.19641 28.754 5.3209 28.9916 5.53063 29.1333L9.72481 31.8667V36.7838C9.72167 37.0466 9.85581 37.292 10.0787 37.4313L19.1147 42.6421C19.2307 42.7302 19.3688 42.7849 19.5137 42.8002C19.6489 42.8002 19.7815 42.7637 19.8978 42.6948L24.4157 40.0442C24.6473 39.9105 24.7906 39.6641 24.7922 39.3967V8.7272C24.7938 8.46287 24.6566 8.21708 24.4308 8.07963ZM23.2787 38.9524L19.5137 41.1587L16.1328 39.2084L20.3646 36.6708L19.6116 35.3832L14.6645 38.35L11.2308 36.3772V31.9119L15.2819 29.5776L14.5289 28.2749L10.4778 30.5866L6.71284 28.0566V24.4798L10.6736 22.2209L9.92059 20.9182L6.71284 22.7404V19.9092L10.4778 17.9589L14.2428 20.0673V23.5838L10.011 26.0009L10.7639 27.2885L14.9958 24.8262L18.7607 26.6861V30.9782L13.9491 33.7417L14.7021 35.0594L23.2787 29.9918V38.9524ZM20.2667 30.0972V25.9331C20.2716 25.6502 20.1174 25.3884 19.8676 25.2554L15.7488 23.1847V19.7661L19.8827 17.4393C20.1195 17.3062 20.2663 17.0559 20.2667 16.7842V10.8732H18.7607V16.3249L14.9958 18.4032L11.2308 16.2948V11.4003L14.2428 9.58562V13.8852H15.7488V8.69708L19.5137 6.49834L23.2787 8.82509V21.9347L20.6658 20.4287L19.9128 21.7314L23.2787 23.6741V28.3879L20.2667 30.0972Z" fill="url(#paint2_linear_395_112844)"/>
<defs>
<linearGradient id="paint0_linear_395_112844" x1="25.5051" y1="24.2049" x2="42.843" y2="24.2049" gradientUnits="userSpaceOnUse">
<stop stop-color="#F0623E"/>
<stop offset="0.03" stop-color="#F16B39"/>
<stop offset="0.09" stop-color="#F27631"/>
<stop offset="0.18" stop-color="#F37D2D"/>
<stop offset="0.43" stop-color="#F37F2C"/>
<stop offset="0.55" stop-color="#F48826"/>
<stop offset="0.76" stop-color="#F6931F"/>
<stop offset="1" stop-color="#F6971D"/>
</linearGradient>
<linearGradient id="paint1_linear_395_112844" x1="25.538" y1="24.0294" x2="32.3106" y2="24.0294" gradientUnits="userSpaceOnUse">
<stop stop-color="#F0623E"/>
<stop offset="0.03" stop-color="#F16B39"/>
<stop offset="0.09" stop-color="#F27631"/>
<stop offset="0.18" stop-color="#F37D2D"/>
<stop offset="0.43" stop-color="#F37F2C"/>
<stop offset="0.55" stop-color="#F48826"/>
<stop offset="0.76" stop-color="#F6931F"/>
<stop offset="1" stop-color="#F6971D"/>
</linearGradient>
<linearGradient id="paint2_linear_395_112844" x1="5.19611" y1="24.0211" x2="24.7767" y2="24.0211" gradientUnits="userSpaceOnUse">
<stop stop-color="#F0623E"/>
<stop offset="0.03" stop-color="#F16B39"/>
<stop offset="0.09" stop-color="#F27631"/>
<stop offset="0.18" stop-color="#F37D2D"/>
<stop offset="0.43" stop-color="#F37F2C"/>
<stop offset="0.55" stop-color="#F48826"/>
<stop offset="0.76" stop-color="#F6931F"/>
<stop offset="1" stop-color="#F6971D"/>
</linearGradient>
</defs>
</svg>
