<svg width="48" height="48" viewBox="0 0 48 48" fill="none" xmlns="http://www.w3.org/2000/svg">
<path fill-rule="evenodd" clip-rule="evenodd" d="M6.52633 8.55754C5.99283 9.06783 5.76445 9.56422 5.76445 10.0269C5.76445 10.4896 5.99283 10.986 6.52633 11.4963C7.06155 12.0082 7.86733 12.4956 8.91227 12.917C10.9991 13.7584 13.926 14.2908 17.1995 14.2908C20.473 14.2908 23.3999 13.7584 25.4867 12.917C26.5317 12.4956 27.3375 12.0082 27.8727 11.4963C28.4062 10.986 28.6346 10.4896 28.6346 10.0269C28.6346 9.56422 28.4062 9.06783 27.8727 8.55754C27.3375 8.0456 26.5317 7.5582 25.4867 7.13685C23.3999 6.29538 20.473 5.76298 17.1995 5.76298C13.926 5.76298 10.9991 6.29538 8.91227 7.13685C7.86733 7.5582 7.06155 8.0456 6.52633 8.55754ZM28.6346 12.3763V20.4929H29.7974V10.0269C29.7974 9.14742 29.3559 8.36705 28.6765 7.71718C27.9988 7.06897 27.0487 6.5128 25.9216 6.05834C23.6645 5.14822 20.5831 4.6001 17.1995 4.6001C13.8159 4.6001 10.7345 5.14822 8.47739 6.05834C7.35034 6.5128 6.40021 7.06897 5.72252 7.71718C5.06816 8.34309 4.63446 9.09003 4.60335 9.92999H4.60156V36.8702H4.60335C4.63446 37.7102 5.06816 38.4571 5.72252 39.083C6.40021 39.7312 7.35034 40.2874 8.47739 40.7419C10.7345 41.652 13.8159 42.2001 17.1995 42.2001C20.5831 42.2001 23.6645 41.652 25.9216 40.7419C27.0487 40.2874 27.9988 39.7312 28.6765 39.083C29.3308 38.4571 29.7645 37.7102 29.7956 36.8702H29.7974V32.897H28.6346V36.7733C28.6346 37.236 28.4062 37.7324 27.8727 38.2427C27.3375 38.7546 26.5317 39.242 25.4867 39.6633C23.3999 40.5048 20.473 41.0372 17.1995 41.0372C13.926 41.0372 10.9991 40.5048 8.91227 39.6633C7.86733 39.242 7.06155 38.7546 6.52633 38.2427C5.99283 37.7324 5.76445 37.236 5.76445 36.7733V30.5948C6.43916 31.2261 7.37339 31.7689 8.47739 32.214C10.7345 33.1241 13.8159 33.6723 17.1995 33.6723C18.1171 33.6723 18.9428 33.6395 19.6748 33.573L20.2539 33.5203L20.1486 32.3622L19.5695 32.4149C18.8803 32.4775 18.0908 32.5094 17.1995 32.5094C13.926 32.5094 10.9991 31.977 8.91227 31.1355C7.86733 30.7142 7.06155 30.2268 6.52633 29.7148C5.99283 29.2045 5.76445 28.7081 5.76445 28.2455V21.6794C6.43916 22.3106 7.37339 22.8534 8.47739 23.2986C10.7345 24.2087 13.8159 24.7568 17.1995 24.7568H17.2083L17.2171 24.7565C19.3961 24.6905 21.3323 24.3599 23.0171 23.7534L23.5641 23.5564L23.1702 22.4623L22.6232 22.6592C21.0798 23.2148 19.2719 23.5301 17.1907 23.5939C13.9207 23.593 10.9972 23.0608 8.91227 22.22C7.86733 21.7987 7.06155 21.3113 6.52633 20.7994C5.99283 20.2891 5.76445 19.7927 5.76445 19.33V12.3763C6.43916 13.0075 7.37339 13.5503 8.47739 13.9955C10.7345 14.9056 13.8159 15.4537 17.1995 15.4537C20.5831 15.4537 23.6645 14.9056 25.9216 13.9955C27.0256 13.5503 27.9598 13.0075 28.6346 12.3763Z" fill="url(#paint0_linear_395_112853)"/>
<path fill-rule="evenodd" clip-rule="evenodd" d="M33.6935 31.3276L33.8873 37.1414L32.725 37.1802L32.5312 31.3664L33.6935 31.3276Z" fill="url(#paint1_linear_395_112853)"/>
<path fill-rule="evenodd" clip-rule="evenodd" d="M30.1979 30.244L25.8624 31.1637L25.6211 30.0261L29.9566 29.1064L30.1979 30.244Z" fill="url(#paint2_linear_395_112853)"/>
<path fill-rule="evenodd" clip-rule="evenodd" d="M27.3856 22.481L31.2962 26.5137L30.4614 27.3233L26.5508 23.2905L27.3856 22.481Z" fill="url(#paint3_linear_395_112853)"/>
<path fill-rule="evenodd" clip-rule="evenodd" d="M26.2108 21.4622C25.6954 21.4622 25.3387 21.8471 25.3387 22.2487C25.3387 22.6503 25.6954 23.0352 26.2108 23.0352C26.7263 23.0352 27.083 22.6503 27.083 22.2487C27.083 21.8471 26.7263 21.4622 26.2108 21.4622ZM24.1758 22.2487C24.1758 21.1393 25.1207 20.2993 26.2108 20.2993C27.301 20.2993 28.2459 21.1393 28.2459 22.2487C28.2459 23.3581 27.301 24.1981 26.2108 24.1981C25.1207 24.1981 24.1758 23.3581 24.1758 22.2487Z" fill="url(#paint4_linear_395_112853)"/>
<path fill-rule="evenodd" clip-rule="evenodd" d="M33.381 37.3318C32.297 37.3318 31.4793 38.1505 31.4793 39.0874C31.4793 40.0243 32.297 40.843 33.381 40.843C34.465 40.843 35.2827 40.0243 35.2827 39.0874C35.2827 38.1505 34.465 37.3318 33.381 37.3318ZM30.3164 39.0874C30.3164 37.4429 31.7222 36.1689 33.381 36.1689C35.0398 36.1689 36.4456 37.4429 36.4456 39.0874C36.4456 40.7319 35.0398 42.0059 33.381 42.0059C31.7222 42.0059 30.3164 40.7319 30.3164 39.0874Z" fill="url(#paint5_linear_395_112853)"/>
<path fill-rule="evenodd" clip-rule="evenodd" d="M24.2357 29.9134C23.4326 29.9134 22.8426 30.5178 22.8426 31.1902C22.8426 31.8627 23.4326 32.4671 24.2357 32.4671C25.0389 32.4671 25.6289 31.8627 25.6289 31.1902C25.6289 30.5178 25.0389 29.9134 24.2357 29.9134ZM21.6797 31.1902C21.6797 29.8101 22.8578 28.7505 24.2357 28.7505C25.6136 28.7505 26.7917 29.8101 26.7917 31.1902C26.7917 32.5704 25.6136 33.63 24.2357 33.63C22.8578 33.63 21.6797 32.5704 21.6797 31.1902Z" fill="url(#paint6_linear_395_112853)"/>
<path fill-rule="evenodd" clip-rule="evenodd" d="M38.652 18.3456C37.9059 18.3456 37.3744 18.9048 37.3744 19.5069C37.3744 20.109 37.9059 20.6682 38.652 20.6682C39.3981 20.6682 39.9296 20.109 39.9296 19.5069C39.9296 18.9048 39.3981 18.3456 38.652 18.3456ZM35.9805 19.5069C35.9805 18.0564 37.217 16.9517 38.652 16.9517C40.087 16.9517 41.3235 18.0564 41.3235 19.5069C41.3235 20.9574 40.087 22.0622 38.652 22.0622C37.217 22.0622 35.9805 20.9574 35.9805 19.5069Z" fill="url(#paint7_linear_395_112853)"/>
<path fill-rule="evenodd" clip-rule="evenodd" d="M32.7606 26.2962C31.2534 26.2962 30.0926 27.4379 30.0926 28.7731C30.0926 30.1084 31.2534 31.2501 32.7606 31.2501C34.2679 31.2501 35.4287 30.1084 35.4287 28.7731C35.4287 27.4379 34.2679 26.2962 32.7606 26.2962ZM28.9297 28.7731C28.9297 26.7302 30.6786 25.1333 32.7606 25.1333C34.8427 25.1333 36.5916 26.7302 36.5916 28.7731C36.5916 30.8161 34.8427 32.413 32.7606 32.413C30.6786 32.413 28.9297 30.8161 28.9297 28.7731Z" fill="url(#paint8_linear_395_112853)"/>
<path fill-rule="evenodd" clip-rule="evenodd" d="M38.4495 21.0922L34.7217 26.917L33.7422 26.2902L37.4701 20.4653L38.4495 21.0922Z" fill="url(#paint9_linear_395_112853)"/>
<path fill-rule="evenodd" clip-rule="evenodd" d="M39.7132 35.8742L35.3496 38.7417L34.7109 37.7698L39.0745 34.9023L39.7132 35.8742Z" fill="url(#paint10_linear_395_112853)"/>
<path fill-rule="evenodd" clip-rule="evenodd" d="M40.0663 34.0374C39.5508 34.0374 39.1941 34.4223 39.1941 34.8239C39.1941 35.2255 39.5508 35.6104 40.0663 35.6104C40.5818 35.6104 40.9385 35.2255 40.9385 34.8239C40.9385 34.4223 40.5818 34.0374 40.0663 34.0374ZM38.0312 34.8239C38.0312 33.7145 38.9762 32.8745 40.0663 32.8745C41.1565 32.8745 42.1014 33.7145 42.1014 34.8239C42.1014 35.9333 41.1565 36.7733 40.0663 36.7733C38.9762 36.7733 38.0312 35.9333 38.0312 34.8239Z" fill="url(#paint11_linear_395_112853)"/>
<defs>
<linearGradient id="paint0_linear_395_112853" x1="5.183" y1="1207.61" x2="2557.92" y2="1780.07" gradientUnits="userSpaceOnUse">
<stop offset="0.03" stop-color="#FF572D"/>
<stop offset="0.4" stop-color="#FF8200"/>
<stop offset="0.88" stop-color="#FF8A06"/>
</linearGradient>
<linearGradient id="paint1_linear_395_112853" x1="40.8843" y1="497.083" x2="40.8843" y2="31.9281" gradientUnits="userSpaceOnUse">
<stop stop-color="#FF8A06"/>
<stop offset="0.88" stop-color="#FF9900"/>
</linearGradient>
<linearGradient id="paint2_linear_395_112853" x1="186.207" y1="29.7959" x2="186.207" y2="97.6309" gradientUnits="userSpaceOnUse">
<stop stop-color="#FF8A06"/>
<stop offset="0.88" stop-color="#FF9900"/>
</linearGradient>
<linearGradient id="paint3_linear_395_112853" x1="303.365" y1="343.097" x2="52.1622" y2="30.8016" gradientUnits="userSpaceOnUse">
<stop stop-color="#FF8A06"/>
<stop offset="0.88" stop-color="#FF9900"/>
</linearGradient>
<linearGradient id="paint4_linear_395_112853" x1="24.7572" y1="20.8808" x2="297.842" y2="311.067" gradientUnits="userSpaceOnUse">
<stop stop-color="#FF8A06"/>
<stop offset="0.88" stop-color="#FF9900"/>
</linearGradient>
<linearGradient id="paint5_linear_395_112853" x1="30.8979" y1="36.7504" x2="497.442" y2="532.468" gradientUnits="userSpaceOnUse">
<stop stop-color="#FF8A06"/>
<stop offset="0.88" stop-color="#FF9900"/>
</linearGradient>
<linearGradient id="paint6_linear_395_112853" x1="22.2611" y1="29.3319" x2="393.236" y2="423.522" gradientUnits="userSpaceOnUse">
<stop stop-color="#FF8A06"/>
<stop offset="0.88" stop-color="#FF9900"/>
</linearGradient>
<linearGradient id="paint7_linear_395_112853" x1="36.6774" y1="17.6486" x2="407.652" y2="411.839" gradientUnits="userSpaceOnUse">
<stop stop-color="#FF8A06"/>
<stop offset="0.88" stop-color="#FF9900"/>
</linearGradient>
<linearGradient id="paint8_linear_395_112853" x1="29.5111" y1="25.7147" x2="640.068" y2="674.421" gradientUnits="userSpaceOnUse">
<stop stop-color="#FF8A06"/>
<stop offset="0.88" stop-color="#FF9900"/>
</linearGradient>
<linearGradient id="paint9_linear_395_112853" x1="34.5453" y1="21.2685" x2="474.533" y2="302.86" gradientUnits="userSpaceOnUse">
<stop stop-color="#FF8A06"/>
<stop offset="0.88" stop-color="#FF9900"/>
</linearGradient>
<linearGradient id="paint10_linear_395_112853" x1="35.5162" y1="35.7076" x2="240.104" y2="347.037" gradientUnits="userSpaceOnUse">
<stop stop-color="#FF8A06"/>
<stop offset="0.88" stop-color="#FF9900"/>
</linearGradient>
<linearGradient id="paint11_linear_395_112853" x1="38.6127" y1="33.456" x2="311.697" y2="323.642" gradientUnits="userSpaceOnUse">
<stop stop-color="#FF8A06"/>
<stop offset="0.88" stop-color="#FF9900"/>
</linearGradient>
</defs>
</svg>
