<svg width="48" height="48" viewBox="0 0 48 48" fill="none" xmlns="http://www.w3.org/2000/svg">
<path fill-rule="evenodd" clip-rule="evenodd" d="M17.9525 14.1024C11.128 14.1024 6.54316 12.1483 6.54316 10.3233C6.54316 8.49889 11.128 6.54413 17.9525 6.54413C24.6964 6.54413 28.7262 8.46596 28.7262 10.3233C28.7262 12.1813 24.6964 14.1024 17.9525 14.1024ZM28.321 24.5065C29.6246 24.5065 30.9255 24.6523 32.1861 24.9399L32.4852 23.6296C31.6896 23.4482 30.8792 23.3259 30.0621 23.2499V10.5457H30.0473C30.0533 10.4711 30.0701 10.3992 30.0701 10.3233C30.0701 7.30749 25.0875 5.2002 17.9525 5.2002C11.6152 5.2002 5.19922 6.96008 5.19922 10.3233C5.19922 10.3999 5.22005 10.4711 5.2261 10.5457H5.19922V37.665C5.19922 39.6003 7.30248 41.1626 11.1219 42.0637L11.4304 40.7561C8.4166 40.0438 6.54316 38.8598 6.54316 37.665V31.2094C7.41336 31.9116 8.69211 32.5083 10.3384 32.9653L10.6979 31.6711C8.09675 30.948 6.54316 29.8702 6.54316 28.787V22.242C8.60811 23.9454 12.7629 24.8694 16.9029 25.0407L16.958 23.6981C10.4386 23.428 6.54316 21.4901 6.54316 19.7732V12.735C8.7499 14.5197 13.365 15.4464 17.9525 15.4464C22.878 15.4464 26.7755 14.4418 28.7181 12.8284V23.174C28.5857 23.1713 28.4534 23.1626 28.321 23.1626C21.3668 23.1626 15.018 26.9921 11.7509 33.1554L12.939 33.7851C15.9715 28.0619 21.8654 24.5065 28.321 24.5065ZM37.2098 26.9545C36.1118 26.2987 34.9419 25.7651 33.7317 25.3687L34.1503 24.0912C35.4553 24.5193 36.7159 25.0945 37.8992 25.8007L37.2098 26.9545ZM30.5916 41.4563C30.474 40.701 30.1622 40.0109 29.7052 39.439L37.3247 32.2348C39.7586 34.5975 41.2712 37.9661 41.4439 41.4563H30.5916ZM26.3467 39.1622C27.7491 39.1622 28.9204 40.1446 29.2228 41.4563H23.4714C23.7738 40.1446 24.945 39.1622 26.3467 39.1622ZM38.3105 31.3028L40.78 28.9684L39.856 27.9914L28.7101 38.5298C28.0314 38.081 27.2196 37.8182 26.3467 37.8182C24.2011 37.8182 22.4231 39.3994 22.1026 41.4563H14.5154C14.8615 34.2232 20.7681 28.4476 27.9796 28.4476C29.9189 28.4476 31.789 28.8495 33.5395 29.6431L34.0945 28.4194C32.1687 27.5458 30.1111 27.1037 27.9796 27.1037C19.8058 27.1037 13.1553 33.8435 13.1553 42.1282V42.8002H42.8039V42.1282C42.8039 38.0655 41.1321 34.0653 38.3105 31.3028Z" fill="url(#paint0_linear_395_112840)"/>
<defs>
<linearGradient id="paint0_linear_395_112840" x1="5.19326" y1="24.0211" x2="42.7741" y2="24.0211" gradientUnits="userSpaceOnUse">
<stop stop-color="#F0623E"/>
<stop offset="0.03" stop-color="#F16B39"/>
<stop offset="0.09" stop-color="#F27631"/>
<stop offset="0.18" stop-color="#F37D2D"/>
<stop offset="0.43" stop-color="#F37F2C"/>
<stop offset="0.55" stop-color="#F48826"/>
<stop offset="0.76" stop-color="#F6931F"/>
<stop offset="1" stop-color="#F6971D"/>
</linearGradient>
</defs>
</svg>
