<svg width="48" height="48" viewBox="0 0 48 48" fill="none" xmlns="http://www.w3.org/2000/svg">
<path fill-rule="evenodd" clip-rule="evenodd" d="M40.3919 29.1623C39.8607 28.6305 39.1636 28.365 38.4659 28.365C37.7682 28.365 37.0711 28.6305 36.5399 29.1623C36.0255 29.6773 35.7414 30.3623 35.7414 31.0904C35.7414 31.8185 36.0255 32.5035 36.5399 33.0185C37.6023 34.0814 39.3295 34.0814 40.3919 33.0185C41.4536 31.955 41.4536 30.2252 40.3919 29.1623ZM34.6656 29.647C34.8603 29.1314 35.1592 28.6574 35.5541 28.2514L34.1082 25.4964L32.3078 28.9015L34.6656 29.647ZM30.367 29.6974L22.4454 27.1925C22.021 28.2776 21.3749 29.2947 20.5006 30.1701C20.3904 30.2796 20.2723 30.3764 20.1581 30.4793L23.6515 35.3318C24.3116 34.8935 25.0839 34.6582 25.8931 34.6582C26.476 34.6582 27.0381 34.7839 27.5552 35.0159L30.367 29.6974ZM28.6169 38.7289C28.6169 38.0008 28.3335 37.3157 27.8191 36.8008C27.3047 36.2865 26.6204 36.0028 25.8931 36.0028C25.1658 36.0028 24.4822 36.2865 23.9678 36.8008C23.4534 37.3157 23.1693 38.0008 23.1693 38.7289C23.1693 39.4569 23.4534 40.142 23.9678 40.657C24.4822 41.1719 25.1658 41.4556 25.8931 41.4556C26.6204 41.4556 27.3047 41.1719 27.8191 40.657C28.3335 40.142 28.6169 39.4569 28.6169 38.7289ZM19.551 29.2188C22.4313 26.3354 22.4313 21.6442 19.551 18.7608C18.1105 17.3194 16.2188 16.5987 14.327 16.5987C12.4353 16.5987 10.5442 17.3187 9.1037 18.7608C6.22342 21.6442 6.22342 26.3354 9.1037 29.2188C11.984 32.1022 16.6707 32.1022 19.551 29.2188ZM20.1473 17.4908C20.2649 17.5964 20.3871 17.6966 20.5006 17.8102C21.3393 18.6498 21.9686 19.6199 22.3944 20.6553L30.2857 18.2156L27.5438 12.9906C27.0307 13.2198 26.4713 13.3429 25.8931 13.3429C25.0792 13.3429 24.3022 13.1055 23.6414 12.6625L20.1473 17.4908ZM23.1693 9.2722C23.1693 10.0003 23.4534 10.6847 23.9678 11.1996C24.4822 11.7146 25.1658 11.9983 25.8931 11.9983C26.6204 11.9983 27.3047 11.7146 27.8191 11.1996C28.3335 10.6847 28.6169 10.0003 28.6169 9.2722C28.6169 8.54345 28.3335 7.85907 27.8191 7.34343C27.3047 6.82846 26.6204 6.54476 25.8931 6.54476C25.1658 6.54476 24.4822 6.82846 23.9678 7.34343C23.4534 7.85907 23.1693 8.54345 23.1693 9.2722ZM22.8335 25.9051L31.0057 28.4894L33.3514 24.0543L30.9217 19.4263L22.8006 21.9366C23.1136 23.2402 23.1257 24.5975 22.8335 25.9051ZM32.2279 19.0223L34.1122 22.6136L35.8798 19.2704C35.7844 19.1904 35.6803 19.1238 35.5903 19.0337C35.3338 18.7769 35.1189 18.4898 34.9429 18.1833L32.2279 19.0223ZM35.7414 16.1543C35.7414 16.8831 36.0255 17.5675 36.5399 18.0831C37.6023 19.146 39.3295 19.146 40.3919 18.0831C41.4536 17.0196 41.4536 15.2898 40.3919 14.2269C39.8607 13.6951 39.1636 13.4296 38.4659 13.4296C37.7682 13.4296 37.0711 13.6951 36.5399 14.2269C36.0255 14.7419 35.7414 15.4263 35.7414 16.1543ZM41.3415 28.2117C42.9263 29.799 42.9263 32.3819 41.3415 33.9691C40.5484 34.7631 39.5075 35.1597 38.4659 35.1597C37.4243 35.1597 36.3828 34.7631 35.5903 33.9691C34.8221 33.2 34.3983 32.1775 34.3983 31.0904C34.3983 31.0514 34.403 31.0131 34.4044 30.9741L31.6691 30.1095L28.6781 35.7675C28.7076 35.7957 28.7392 35.8212 28.7687 35.8502C29.537 36.6192 29.96 37.6418 29.96 38.7289C29.96 39.8166 29.537 40.8391 28.7687 41.6076C28.0011 42.3767 26.979 42.8002 25.8931 42.8002C24.8072 42.8002 23.7858 42.3767 23.0182 41.6076C22.2493 40.8391 21.8262 39.8166 21.8262 38.7289C21.8262 37.824 22.1237 36.9668 22.665 36.2602L19.0991 31.3076C17.6552 32.2514 15.9918 32.7254 14.327 32.7254C12.0914 32.7254 9.85584 31.8736 8.15413 30.1701C4.75071 26.7623 4.75071 21.218 8.15413 17.8102C11.119 14.8414 15.7044 14.4615 19.087 16.6653L22.6576 11.7307C22.121 11.0262 21.8262 10.1724 21.8262 9.2722C21.8262 8.18445 22.25 7.16191 23.0182 6.39282C23.7858 5.62373 24.8072 5.2002 25.8931 5.2002C26.979 5.2002 28.0011 5.62373 28.7687 6.39282C29.537 7.16191 29.96 8.18445 29.96 9.2722C29.96 10.3593 29.537 11.3818 28.7687 12.1502C28.7372 12.1825 28.7016 12.2107 28.6687 12.2423L31.5919 17.8115L34.4722 16.9214C34.4238 16.6713 34.3983 16.4152 34.3983 16.1543C34.3983 15.0673 34.8221 14.0447 35.5903 13.2763C37.1759 11.6884 39.756 11.6884 41.3415 13.2763C42.9263 14.8629 42.9263 17.4458 41.3415 19.0337C40.5484 19.827 39.5075 20.2243 38.4659 20.2243C37.9804 20.2243 37.4969 20.1289 37.0368 19.9568L34.8691 24.0563L36.6581 27.4641C38.1805 26.7058 40.0743 26.9438 41.3415 28.2117ZM14.9986 23.3175H18.3563V24.6621H14.9986V28.0235H13.6555V24.6621H10.2977V23.3175H13.6555V19.9561H14.9986V23.3175Z" fill="url(#paint0_linear_395_112873)"/>
<defs>
<linearGradient id="paint0_linear_395_112873" x1="5.59571" y1="24.0211" x2="42.5009" y2="24.0211" gradientUnits="userSpaceOnUse">
<stop stop-color="#F0623E"/>
<stop offset="0.03" stop-color="#F16B39"/>
<stop offset="0.09" stop-color="#F27631"/>
<stop offset="0.18" stop-color="#F37D2D"/>
<stop offset="0.43" stop-color="#F37F2C"/>
<stop offset="0.55" stop-color="#F48826"/>
<stop offset="0.76" stop-color="#F6931F"/>
<stop offset="1" stop-color="#F6971D"/>
</linearGradient>
</defs>
</svg>
