<svg width="48" height="48" viewBox="0 0 48 48" fill="none" xmlns="http://www.w3.org/2000/svg">
<path d="M34.1758 15.1405C34.4543 15.1405 34.6709 14.9136 34.6709 14.6454V10.8911C34.6709 7.92073 29.2561 5.6001 22.3354 5.6001C15.4148 5.6001 10 7.92073 10 10.8911V37.1091C10 40.0795 15.4148 42.4001 22.3354 42.4001C29.2561 42.4001 34.6709 40.0795 34.6709 37.1091V36.4799C34.6709 36.2014 34.4439 35.9849 34.1758 35.9849C33.8973 35.9849 33.6807 36.2118 33.6807 36.4799V37.1091C33.6807 39.1822 29.122 41.3997 22.3457 41.3997C15.5695 41.3997 11.0004 39.1822 11.0004 37.1091V30.9001C12.8776 32.7772 17.1888 34.0665 22.3354 34.0665C23.2018 34.0665 24.0785 34.0252 24.9242 33.953C25.2027 33.9324 25.3987 33.6849 25.378 33.4064C25.3574 33.1279 25.1099 32.9319 24.8314 32.9526C24.0166 33.0248 23.1812 33.066 22.3354 33.066C15.5592 33.066 11.0004 30.8485 11.0004 28.7754V22.2261C12.8776 24.1032 17.1888 25.3925 22.3354 25.3925C23.2121 25.3925 24.0785 25.3512 24.9242 25.279C25.2027 25.2584 25.3987 25.0109 25.378 24.7324C25.3574 24.4539 25.1099 24.2579 24.8314 24.2786C24.0166 24.3508 23.1709 24.392 22.3251 24.392C15.5489 24.392 10.9901 22.1745 10.9901 20.1014V13.0158C12.8673 14.8929 17.1785 16.1822 22.3251 16.1822C27.4718 16.1822 31.7933 14.8929 33.6601 13.0158V14.6454C33.6704 14.9136 33.8973 15.1405 34.1758 15.1405ZM22.3354 15.1817C15.5592 15.1817 11.0004 12.9642 11.0004 10.8911C11.0004 8.81803 15.5592 6.60055 22.3354 6.60055C29.1117 6.60055 33.6704 8.81803 33.6704 10.8911C33.6704 12.9642 29.1117 15.1817 22.3354 15.1817Z" fill="url(#paint0_linear_395_112829)"/>
<path d="M42.7095 22.4842C42.6992 22.4429 42.6889 22.4017 42.6683 22.3604C42.6683 22.3501 42.658 22.3398 42.6477 22.3295C42.627 22.2882 42.5961 22.2573 42.5651 22.2263L40.0486 19.7097L38.3777 18.0389L36.7069 16.368C36.614 16.2752 36.4903 16.2236 36.3562 16.2236H28.1669C27.8885 16.2236 27.6719 16.4505 27.6719 16.7187V31.3851C27.6719 31.6635 27.8988 31.8801 28.1669 31.8801H29.3324V33.0456C29.3324 33.3241 29.5593 33.5407 29.8275 33.5407H30.9929V34.7061C30.9929 34.9846 31.2199 35.2012 31.488 35.2012H42.2042C42.4826 35.2012 42.6992 34.9743 42.6992 34.7061V22.577C42.7199 22.5461 42.7095 22.5151 42.7095 22.4842ZM40.193 21.2671L41.0077 22.0819H40.193V21.2671ZM28.6723 30.89V17.2241H36.1499L36.8203 17.8945H29.8378C29.5593 17.8945 29.3427 18.1214 29.3427 18.3896V30.89H28.6723ZM30.3432 32.5609V18.8949H37.8208L38.4912 19.5653H31.5086C31.2302 19.5653 31.0136 19.7922 31.0136 20.0604V32.5609H30.3432ZM32.0037 34.2317V20.5555H39.1925V22.577C39.1925 22.8555 39.4194 23.0721 39.6876 23.0721H41.7091V34.2214H32.0037V34.2317Z" fill="url(#paint1_linear_395_112829)"/>
<path d="M35.7993 24.9082C36.0365 24.7741 36.1293 24.4647 35.9952 24.2274C35.8612 23.9902 35.5517 23.8974 35.3145 24.0315C35.2733 24.0521 34.2316 24.6503 34.2316 26.1355C34.2316 27.3113 33.6437 27.4041 33.458 27.4351C33.2105 27.4763 33.0352 27.6826 33.0352 27.9301C33.0352 28.1777 33.2105 28.3839 33.458 28.4252C33.654 28.4561 34.2316 28.549 34.2316 29.7247C34.2316 31.2099 35.263 31.8082 35.3145 31.8288C35.3867 31.87 35.4796 31.8907 35.5621 31.8907C35.7374 31.8907 35.9127 31.7978 35.9952 31.6328C36.1293 31.3956 36.0468 31.0862 35.7993 30.9521C35.789 30.9521 35.232 30.6117 35.232 29.7247C35.232 28.8171 34.9535 28.2705 34.6132 27.9301C34.9535 27.6001 35.232 27.0431 35.232 26.1355C35.232 25.2588 35.7787 24.9185 35.7993 24.9082Z" fill="url(#paint2_linear_395_112829)"/>
<path d="M40.2769 27.445C40.0809 27.4141 39.5033 27.3212 39.5033 26.1454C39.5033 24.6602 38.4719 24.062 38.4204 24.0414C38.1832 23.9073 37.8737 23.9898 37.7397 24.2374C37.6056 24.4746 37.6881 24.784 37.9356 24.9181C37.9459 24.9181 38.5029 25.2585 38.5029 26.1454C38.5029 27.0531 38.7814 27.5997 39.1217 27.9401C38.7814 28.2701 38.5029 28.8271 38.5029 29.7347C38.5029 30.6011 37.9666 30.9517 37.9356 30.9724C37.6984 31.1064 37.6159 31.4055 37.75 31.6531C37.8428 31.8181 38.0078 31.9109 38.1832 31.9109C38.2657 31.9109 38.3482 31.8903 38.4307 31.849C38.4719 31.8284 39.5136 31.2302 39.5136 29.745C39.5136 28.5692 40.1015 28.4764 40.2872 28.4454C40.5347 28.4042 40.7101 28.1979 40.7101 27.9504C40.6894 27.6925 40.5141 27.4759 40.2769 27.445Z" fill="url(#paint3_linear_395_112829)"/>
<defs>
<linearGradient id="paint0_linear_395_112829" x1="9.99862" y1="23.9984" x2="34.6719" y2="23.9984" gradientUnits="userSpaceOnUse">
<stop stop-color="#D25535"/>
<stop offset="1" stop-color="#E08B20"/>
</linearGradient>
<linearGradient id="paint1_linear_395_112829" x1="27.6439" y1="25.7256" x2="46.6542" y2="25.7256" gradientUnits="userSpaceOnUse">
<stop stop-color="#D25535"/>
<stop offset="1" stop-color="#E08B20"/>
</linearGradient>
<linearGradient id="paint2_linear_395_112829" x1="27.6439" y1="27.9347" x2="46.6542" y2="27.9347" gradientUnits="userSpaceOnUse">
<stop stop-color="#D25535"/>
<stop offset="1" stop-color="#E08B20"/>
</linearGradient>
<linearGradient id="paint3_linear_395_112829" x1="27.6453" y1="27.9343" x2="46.6556" y2="27.9343" gradientUnits="userSpaceOnUse">
<stop stop-color="#D25535"/>
<stop offset="1" stop-color="#E08B20"/>
</linearGradient>
</defs>
</svg>
