<svg width="67" height="67" viewBox="0 0 67 67" fill="none" xmlns="http://www.w3.org/2000/svg">
<rect width="67" height="67" rx="16" fill="#1D3C77"/>
<path d="M32.918 46.0283C36.3658 46.0283 39.6724 44.6587 42.1104 42.2207C44.5483 39.7827 45.918 36.4761 45.918 33.0283C45.918 29.5805 44.5483 26.2739 42.1104 23.8359C39.6724 21.398 36.3658 20.0283 32.918 20.0283C29.4702 20.0283 26.1636 21.398 23.7256 23.8359C21.2876 26.2739 19.918 29.5805 19.918 33.0283C19.918 36.4761 21.2876 39.7827 23.7256 42.2207C26.1636 44.6587 29.4702 46.0283 32.918 46.0283Z" stroke="white" stroke-width="3.25" stroke-linecap="round" stroke-linejoin="round"/>
<path d="M32.9141 36.2773C33.776 36.2773 34.6027 35.9349 35.2122 35.3254C35.8217 34.7159 36.1641 33.8893 36.1641 33.0273C36.1641 32.1654 35.8217 31.3387 35.2122 30.7292C34.6027 30.1198 33.776 29.7773 32.9141 29.7773C32.0521 29.7773 31.2255 30.1198 30.616 30.7292C30.0065 31.3387 29.6641 32.1654 29.6641 33.0273C29.6641 33.8893 30.0065 34.7159 30.616 35.3254C31.2255 35.9349 32.0521 36.2773 32.9141 36.2773Z" stroke="white" stroke-width="3.25" stroke-linecap="round" stroke-linejoin="round"/>
<path d="M32.9102 16.7725V20.0225" stroke="white" stroke-width="3.25" stroke-linecap="round" stroke-linejoin="round"/>
<path d="M32.9102 49.2715V46.0215" stroke="white" stroke-width="3.25" stroke-linecap="round" stroke-linejoin="round"/>
<path d="M41.0391 47.1013L39.4141 44.29" stroke="white" stroke-width="3.25" stroke-linecap="round" stroke-linejoin="round"/>
<path d="M31.293 30.2124L24.793 18.9512" stroke="white" stroke-width="3.25" stroke-linecap="round" stroke-linejoin="round"/>
<path d="M46.9909 41.1533L44.1797 39.5283" stroke="white" stroke-width="3.25" stroke-linecap="round" stroke-linejoin="round"/>
<path d="M18.8398 24.9023L21.6511 26.5273" stroke="white" stroke-width="3.25" stroke-linecap="round" stroke-linejoin="round"/>
<path d="M36.1602 33.0244H49.1602" stroke="white" stroke-width="3.25" stroke-linecap="round" stroke-linejoin="round"/>
<path d="M16.6602 33.0244H19.9102" stroke="white" stroke-width="3.25" stroke-linecap="round" stroke-linejoin="round"/>
<path d="M46.9909 24.9023L44.1797 26.5273" stroke="white" stroke-width="3.25" stroke-linecap="round" stroke-linejoin="round"/>
<path d="M18.8398 41.1533L21.6511 39.5283" stroke="white" stroke-width="3.25" stroke-linecap="round" stroke-linejoin="round"/>
<path d="M41.0391 18.9512L39.4141 21.7624" stroke="white" stroke-width="3.25" stroke-linecap="round" stroke-linejoin="round"/>
<path d="M31.293 35.833L24.793 47.0943" stroke="white" stroke-width="3.25" stroke-linecap="round" stroke-linejoin="round"/>
</svg>
