<svg width="67" height="67" viewBox="0 0 67 67" fill="none" xmlns="http://www.w3.org/2000/svg">
<rect width="67" height="67" rx="16" fill="#67BD50"/>
<path d="M42.8749 47.6339C45.5758 47.6339 47.7653 45.4506 47.7653 42.7574C47.7653 40.0642 45.5758 37.8809 42.8749 37.8809C40.1739 37.8809 37.9844 40.0642 37.9844 42.7574C37.9844 45.4506 40.1739 47.6339 42.8749 47.6339Z" stroke="white" stroke-width="1.67196" stroke-linecap="round" stroke-linejoin="round"/>
<path d="M23.3124 28.1261C26.0133 28.1261 28.2028 25.9428 28.2028 23.2496C28.2028 20.5563 26.0133 18.373 23.3124 18.373C20.6114 18.373 18.4219 20.5563 18.4219 23.2496C18.4219 25.9428 20.6114 28.1261 23.3124 28.1261Z" stroke="white" stroke-width="1.67196" stroke-linecap="round" stroke-linejoin="round"/>
<path d="M23.3125 47.6341V28.1279C23.3125 32.0079 24.8582 35.7291 27.6097 38.4726C30.3611 41.2162 34.0928 42.7576 37.9839 42.7576" stroke="white" stroke-width="1.67196" stroke-linecap="round" stroke-linejoin="round"/>
</svg>
