<svg width="67" height="67" viewBox="0 0 67 67" fill="none" xmlns="http://www.w3.org/2000/svg">
<rect width="67" height="67" rx="16" fill="#C8A45A"/>
<path d="M48.8936 26.4866C48.8931 25.9149 48.7421 25.3533 48.456 24.8583C48.1699 24.3633 47.7586 23.9523 47.2635 23.6664L35.8524 17.1458C35.3567 16.8596 34.7945 16.709 34.2222 16.709C33.6499 16.709 33.0877 16.8596 32.5921 17.1458L21.1809 23.6664C20.6858 23.9523 20.2745 24.3633 19.9884 24.8583C19.7023 25.3533 19.5514 25.9149 19.5508 26.4866V39.5279C19.5514 40.0996 19.7023 40.6611 19.9884 41.1561C20.2745 41.6511 20.6858 42.0622 21.1809 42.348L32.5921 48.8687C33.0877 49.1548 33.6499 49.3055 34.2222 49.3055C34.7945 49.3055 35.3567 49.1548 35.8524 48.8687L47.2635 42.348C47.7586 42.0622 48.1699 41.6511 48.456 41.1561C48.7421 40.6611 48.8931 40.0996 48.8936 39.5279V26.4866Z" stroke="white" stroke-width="1.67196" stroke-linecap="round" stroke-linejoin="round"/>
<path d="M20.0391 24.8564L34.2214 33.0072L48.4038 24.8564" stroke="white" stroke-width="1.67196" stroke-linecap="round" stroke-linejoin="round"/>
<path d="M34.2227 49.3065V33.0049" stroke="white" stroke-width="1.67196" stroke-linecap="round" stroke-linejoin="round"/>
</svg>
