<svg width="67" height="67" viewBox="0 0 67 67" fill="none" xmlns="http://www.w3.org/2000/svg">
<rect width="67" height="67" rx="16" fill="#008CCC"/>
<path d="M43.0352 19.8037H23.5352C21.7402 19.8037 20.2852 21.2712 20.2852 23.0815V42.7482C20.2852 44.5584 21.7402 46.0259 23.5352 46.0259H43.0352C44.8301 46.0259 46.2852 44.5584 46.2852 42.7482V23.0815C46.2852 21.2712 44.8301 19.8037 43.0352 19.8037Z" stroke="white" stroke-width="1.85223" stroke-linecap="round" stroke-linejoin="round"/>
<path d="M38.1602 27.9941H28.4102V37.8275H38.1602V27.9941Z" stroke="white" stroke-width="1.85223" stroke-linecap="round" stroke-linejoin="round"/>
<path d="M38.1602 16.5195V19.7973" stroke="white" stroke-width="1.85223" stroke-linecap="round" stroke-linejoin="round"/>
<path d="M38.1602 46.0186V49.2963" stroke="white" stroke-width="1.85223" stroke-linecap="round" stroke-linejoin="round"/>
<path d="M17.0312 37.8281H20.2812" stroke="white" stroke-width="1.85223" stroke-linecap="round" stroke-linejoin="round"/>
<path d="M17.0312 27.9941H20.2812" stroke="white" stroke-width="1.85223" stroke-linecap="round" stroke-linejoin="round"/>
<path d="M46.2852 37.8281H49.5352" stroke="white" stroke-width="1.85223" stroke-linecap="round" stroke-linejoin="round"/>
<path d="M46.2852 27.9941H49.5352" stroke="white" stroke-width="1.85223" stroke-linecap="round" stroke-linejoin="round"/>
<path d="M28.4102 16.5195V19.7973" stroke="white" stroke-width="1.85223" stroke-linecap="round" stroke-linejoin="round"/>
<path d="M28.4102 46.0186V49.2963" stroke="white" stroke-width="1.85223" stroke-linecap="round" stroke-linejoin="round"/>
</svg>
