<svg width="124" height="43" viewBox="0 0 124 43" fill="none" xmlns="http://www.w3.org/2000/svg">
<path fill-rule="evenodd" clip-rule="evenodd" d="M13.3786 11.495C15.3719 11.495 17.3651 11.5258 19.3557 11.4738C19.8837 11.46 20.831 11.8967 20.7885 10.7993C20.7562 9.90614 19.9278 10.2293 19.4258 10.2214C17.1773 10.1858 14.9213 10.1004 12.6819 10.241C11.0882 10.3402 10.6186 9.73526 10.8186 8.27376C10.8876 7.76961 10.8213 7.24742 10.8319 6.73372C10.9019 3.31295 11.7287 2.14863 15.0466 1.30485C18.7019 0.376155 22.4427 0.406934 26.0879 1.2072C29.3649 1.92681 30.7261 4.4762 30.5605 6.83455C30.3589 9.71244 30.5149 12.6153 30.5122 15.5075C30.5075 19.1442 28.6283 21.0743 24.9618 21.1248C21.9422 21.1661 18.919 21.199 15.901 21.1152C12.304 21.0144 9.66546 24.0021 9.64741 27.3879C9.64741 27.6447 9.69146 27.91 9.64051 28.1579C9.38154 29.4013 10.4164 31.411 9.09816 31.7803C7.09218 32.3439 4.74338 32.3439 2.97409 30.5539C2.37442 29.9489 1.86921 29.2712 1.60281 28.488C0.181109 24.3141 -0.0433692 20.0873 1.29501 15.8482C2.12924 13.2022 4.39844 11.5566 7.20946 11.5093C9.26532 11.4748 11.3217 11.5024 13.3776 11.5024L13.3786 11.495ZM17.0414 5.59382C16.9554 4.58393 16.4125 3.84681 15.2923 3.81603C14.0669 3.78419 13.4338 4.52503 13.4322 5.73073C13.4312 6.84835 14.0399 7.56424 15.1522 7.59661C16.3743 7.63217 16.966 6.87488 17.0414 5.59382Z" fill="#386F9F"/>
<path fill-rule="evenodd" clip-rule="evenodd" d="M28.7631 31.9558C26.513 31.9558 24.2619 31.9362 22.0118 31.9718C21.505 31.9781 20.6548 31.6576 20.6283 32.5242C20.5986 33.507 21.5108 33.2512 22.0903 33.2571C24.3404 33.2852 26.5926 33.3091 28.8422 33.2464C29.998 33.2146 30.4698 33.4359 30.5563 34.7987C30.9474 40.9679 28.2701 41.5012 23.3321 42.6236C20.4993 43.2673 17.4622 42.9261 14.6687 41.6747C12.3587 40.6415 10.9412 39.1524 11.1201 36.3642C11.2973 33.6121 11.327 30.8244 11.1153 28.075C10.8606 24.7566 12.9249 22.316 16.9395 22.3149C19.6407 22.3144 22.3599 22.1085 25.0377 22.3547C28.8666 22.706 31.8687 19.3872 32.0003 15.528C32.0056 15.4001 31.9727 15.2627 32.0056 15.1438C32.3431 13.9578 31.1427 12.1948 32.7485 11.5957C35.1753 10.6909 37.9121 11.6419 39.1517 13.4833C40.7146 15.8019 40.9258 18.5301 41.1784 21.1941C41.4517 24.0657 40.6461 26.7689 39.4399 29.3592C38.6205 31.1158 37.2429 31.9649 35.3234 31.9675C33.137 31.9691 30.9511 31.9675 28.7642 31.9675C28.7631 31.9633 28.7631 31.9595 28.7631 31.9558ZM28.1772 37.6872C27.9368 36.5908 27.4422 35.8425 26.1686 35.8112C24.844 35.7794 24.5023 36.7702 24.5092 37.6548C24.5166 38.5952 24.7787 39.7521 26.2127 39.6438C27.4046 39.5525 27.9857 38.8144 28.1772 37.6872Z" fill="#FFCF46"/>
<path fill-rule="evenodd" clip-rule="evenodd" d="M50.9697 31.7573C50.9697 33.6147 51.0539 35.3542 50.9302 37.0785C50.8769 37.8223 51.697 39.2222 50.1367 39.2208C48.7613 39.2208 48.4081 38.1259 48.4519 36.803C48.5361 34.278 48.4764 31.748 48.4764 29.2208V23.4673C48.4764 20 49.4065 18.8259 52.7228 18.108C55.806 17.4376 58.2289 18.4756 59.4748 21.1747C60.7208 23.8745 60.8172 26.6563 59.5705 29.4028C58.3418 32.1091 56.0787 33.1191 53.1796 32.317C52.5193 32.1371 51.8524 31.981 50.9697 31.7573ZM50.9697 24.9607C50.9697 25.9175 51.0992 26.8929 50.9431 27.8238C50.582 29.9754 51.956 30.5056 53.576 30.8883C55.178 31.2667 56.2765 30.5855 56.9189 29.1741C57.9987 26.8073 58.18 24.3665 57.3599 21.8638C56.6319 19.6396 54.9507 19.3791 52.9883 19.6554C51.0503 19.9309 50.7877 21.2488 50.9568 22.8781C51.0287 23.5651 50.9697 24.2665 50.9697 24.9607ZM71.8221 31.6422C70.4948 31.9875 69.3424 32.3558 68.1627 32.5774C65.5801 33.0601 63.668 31.6422 62.9954 29.0568C62.161 25.8571 62.8674 22.6695 62.889 19.477C62.8983 18.0217 64.245 18.5893 65.1765 17.8095C65.1765 21.2265 65.1895 24.1759 65.1722 27.1231C65.1629 28.6036 65.5456 29.8208 66.9455 30.6013C68.4907 31.4631 69.7582 30.6423 71.1034 30.0891C72.0674 29.6927 71.9472 28.8834 71.9487 28.1137C71.9559 25.3283 71.948 22.5458 71.9573 19.7604C71.9588 19.0734 71.8875 18.2339 72.9018 18.2677C73.8061 18.2972 74.1996 18.8346 74.1845 19.8201C74.119 24.4291 74.2492 29.0446 74.0622 33.6471C73.9205 37.1274 71.4653 39.2531 67.9332 39.4092C67.4044 39.4315 66.8505 39.4805 66.6527 38.8244C66.3513 37.8144 67.1692 38.005 67.7066 37.8331C71.5919 36.5972 72.0997 35.8592 71.8221 31.6422ZM88.241 19.6827C89.2689 19.1971 89.8595 18.7526 90.5091 18.6324C94.1542 17.9584 96.9475 18.2152 96.9403 23.1249C96.9352 25.6535 96.9417 28.1828 96.9352 30.7106C96.9338 31.4185 96.9791 32.1077 95.9238 32.1688C94.8109 32.235 94.5664 31.5983 94.5714 30.7257C94.5843 28.2892 94.6505 25.8527 94.6484 23.417C94.6469 21.525 94.2606 19.8503 91.8543 19.8561C89.7437 19.8597 88.2489 21.4351 88.2381 23.609C88.226 25.9623 88.2267 28.3156 88.2402 30.6689C88.2424 31.5048 88.2604 32.2379 87.0518 32.1688C85.9634 32.1041 86.0972 31.3703 86.0972 30.6948C86.09 24.5082 86.1202 18.3152 86.0677 12.1243C86.0584 11.0395 86.4864 10.3662 87.4489 10.3201C88.8071 10.2575 88.1848 11.4452 88.205 12.0409C88.2935 14.4659 88.241 16.8966 88.241 19.6827ZM99.7437 25.2298C99.6062 20.3992 101.897 17.8203 106.045 17.9699C108.127 18.0462 109.689 18.9698 110.697 20.7682C112.477 23.9493 112.236 27.1318 110.31 30.1107C108.986 32.1566 106.95 33.1212 104.468 32.5947C102.021 32.0767 100.105 29.8733 99.758 27.3051C99.666 26.6253 99.7437 25.9211 99.7437 25.2298ZM109.326 25.3427C109.216 24.4996 109.236 23.3242 108.885 22.2753C108.405 20.8366 107.53 19.6784 105.745 19.5993C103.945 19.5216 103.046 20.574 102.446 22.0307C101.503 24.3176 101.564 26.6138 102.585 28.8597C103.241 30.3064 104.254 31.3653 106.009 31.0718C107.738 30.7833 108.758 29.6503 109.111 27.9691C109.272 27.2073 109.246 26.4088 109.326 25.3427ZM114.366 25.9865C114.366 25.1147 114.35 24.2442 114.369 23.3767C114.409 21.7041 113.876 19.851 116.132 18.9964C118.714 18.021 121.274 17.2901 123.873 18.8C124.846 19.3655 125.204 20.3927 125.214 21.4833C125.241 24.5269 125.201 27.572 125.242 30.6157C125.256 31.6775 124.977 32.2084 123.784 32.1796C122.476 32.1487 122.751 31.2566 122.76 30.5445C122.791 28.113 122.96 25.6837 122.914 23.2558C122.853 20.1985 121.176 18.9518 118.318 19.7021C117.132 20.0143 116.391 20.5898 116.45 22.0574C116.565 24.9219 116.476 27.7965 116.487 30.666C116.49 31.4976 116.502 32.2343 115.302 32.1645C114.203 32.1012 114.383 31.3408 114.374 30.6811C114.354 29.1158 114.368 27.5497 114.366 25.9865ZM83.0248 19.2072C82.845 19.4201 82.6939 19.7539 82.5356 19.7568C79.6841 19.7964 80.4754 21.925 80.402 23.504C80.3322 24.9751 80.402 26.4534 80.3811 27.9288C80.3595 29.3949 80.4869 30.7574 82.2709 31.1466C82.7824 31.2574 83.0154 31.5523 82.909 32.0631C82.7917 32.627 82.3421 32.6047 81.8968 32.599C79.8466 32.563 78.3266 31.1135 78.2662 28.9913C78.2043 26.8232 78.2885 24.65 78.2374 22.4839C78.2108 21.4552 78.7453 20.1424 77.0864 19.7345C76.9044 19.6906 76.8397 19.1748 76.721 18.8806C78.9338 18.1864 78.0158 16.2779 78.3194 14.8299C78.4633 14.1443 79.1143 13.9565 79.7294 13.8983C80.3516 13.8393 80.3567 14.3428 80.3768 14.7637C80.4588 16.4326 79.5949 18.6662 82.6673 18.5447C82.7701 18.5411 82.8903 18.9497 83.0248 19.2072Z" fill="#386F9F"/>
</svg>
