<svg width="124" height="40" viewBox="0 0 124 40" fill="none" xmlns="http://www.w3.org/2000/svg">
<path d="M88.6332 32.0678C85.9032 31.8928 84.3162 30.3398 83.8962 27.4348C83.7842 26.6618 83.7842 26.6418 83.7722 21.6248L83.7612 16.7688H86.1772L86.1862 21.4658C86.1952 25.6988 86.2002 26.1958 86.2412 26.4928C86.4052 27.7018 86.7322 28.5148 87.2902 29.0978C87.7362 29.5648 88.2582 29.8378 88.9812 29.9828C89.3212 30.0518 90.2922 30.0518 90.6032 29.9828C91.3012 29.8406 91.941 29.4939 92.4412 28.9868C93.0322 28.3968 93.4692 27.5598 93.6812 26.6138L93.7512 26.2948L93.7672 16.8208H96.2342V31.7148H93.7932V30.5328C93.7932 29.7308 93.7842 29.3548 93.7652 29.3608C93.7098 29.4254 93.6631 29.497 93.6262 29.5738C93.1812 30.3644 92.5278 31.0178 91.7372 31.4628C90.8172 31.9678 89.8942 32.1478 88.6332 32.0678ZM116.333 32.0558C115.339 31.9731 114.378 31.6594 113.526 31.1398C111.778 30.0598 110.744 28.2798 110.442 25.8318C110.337 24.9838 110.324 23.8458 110.412 23.1258C110.607 21.5158 111.24 19.9358 112.142 18.8088C112.372 18.5188 112.897 17.9958 113.186 17.7648C113.966 17.1425 114.878 16.7077 115.852 16.4938C116.418 16.3708 117.414 16.3128 118.015 16.3678C119.525 16.5078 120.907 17.2178 121.847 18.3348C122.803 19.4698 123.327 21.0558 123.395 23.0088C123.406 23.4064 123.408 23.8041 123.4 24.2018L123.387 24.8378L112.815 24.8508V25.0868C112.815 25.8038 112.989 26.6208 113.291 27.3168C113.551 27.9158 114 28.5698 114.366 28.8868C115.118 29.5363 116.056 29.9324 117.046 30.0188C117.42 30.0538 118.372 30.0168 118.797 29.9518C120.012 29.7648 121.167 29.2888 122.098 28.5918C122.208 28.5088 122.313 28.4318 122.332 28.4208C122.359 28.4038 122.366 28.6178 122.365 29.5208V30.6408L122.114 30.7958C121.036 31.4553 119.828 31.8735 118.572 32.0218C118.19 32.0688 116.79 32.0898 116.333 32.0558ZM120.933 22.6008C120.933 21.3998 120.426 20.0648 119.709 19.3778C119.198 18.8874 118.544 18.5711 117.842 18.4738C117.494 18.4198 116.761 18.4408 116.394 18.5138C115.644 18.6566 114.955 19.0226 114.417 19.5638C113.825 20.1503 113.377 20.8665 113.108 21.6558C113.008 21.9458 112.892 22.4208 112.855 22.6848L112.838 22.8108H120.933V22.6008ZM49.2282 31.6808L57.1952 10.7798H59.7512L59.8572 11.0498C60.1812 11.8808 67.8202 31.6918 67.8202 31.7018C67.8202 31.7088 67.2082 31.7138 66.4602 31.7138H65.1002L62.8982 25.8578H54.0322L53.9942 25.9578C53.9732 26.0118 53.5022 27.3298 52.9482 28.8848L51.9422 31.7138H50.5792C49.5012 31.7138 49.2192 31.7078 49.2282 31.6808ZM62.0892 23.6238C62.0892 23.6188 61.3492 21.6128 60.4432 19.1638C58.7492 14.5858 58.6542 14.3098 58.5202 13.5748C58.4572 13.2308 58.4252 13.2208 58.3882 13.5348C58.3354 13.8755 58.2586 14.212 58.1582 14.5418C58.1132 14.6808 57.3502 16.7718 56.4622 19.1898C55.9192 20.6614 55.3808 22.1347 54.8472 23.6098C54.8472 23.6218 56.4772 23.6318 58.4682 23.6318C60.4602 23.6318 62.0892 23.6278 62.0892 23.6238ZM68.6422 30.9518L77.4762 18.8218L69.4782 18.7958L69.4642 16.7688H81.0322V17.4528L76.6152 23.5508C74.1852 26.9048 72.1972 29.6548 72.1972 29.6608C72.1972 29.6678 74.1612 29.6738 76.5612 29.6738H80.9262V31.7138H68.6422V30.9518ZM101.053 31.6968C101.043 31.6868 101.036 28.3238 101.036 24.2238V16.7678H103.45V18.3048C103.45 19.1508 103.46 19.8418 103.472 19.8418C103.485 19.8418 103.544 19.7038 103.603 19.5348C103.883 18.7465 104.345 18.0355 104.952 17.4598C105.474 16.9537 106.141 16.6227 106.859 16.5128C107.066 16.4798 107.241 16.4728 107.655 16.4838C108.175 16.4978 108.446 16.5358 108.762 16.6388L108.862 16.6708V19.1748L108.577 19.0328C108.083 18.7825 107.53 18.6718 106.978 18.7128C106.589 18.7328 106.334 18.7828 106.023 18.8988C105.392 19.1316 104.857 19.5683 104.502 20.1398C103.961 21.0227 103.617 22.0118 103.492 23.0398C103.472 23.2168 103.461 24.6618 103.456 27.5088L103.449 31.7158H102.26C101.606 31.7158 101.063 31.7068 101.053 31.6968Z" fill="#0089D6"/>
<path d="M14.1719 0.351674H26.3717L13.7074 37.8747C13.5773 38.2604 13.3295 38.5955 12.9989 38.8329C12.6683 39.0703 12.2715 39.198 11.8644 39.1979H2.37026C2.06192 39.1979 1.75802 39.1244 1.48366 38.9837C1.2093 38.843 0.972355 38.639 0.7924 38.3886C0.612496 38.1382 0.494834 37.8485 0.449155 37.5436C0.403475 37.2386 0.431094 36.9272 0.529722 36.635L12.3289 1.67466C12.459 1.28897 12.7068 0.953819 13.0374 0.716378C13.3681 0.478937 13.7648 0.351773 14.1719 0.351674Z" fill="url(#paint0_linear_440_90128)"/>
<path d="M31.8993 25.52H12.5543C12.3744 25.5196 12.1985 25.5734 12.0497 25.6744C11.9008 25.7755 11.7858 25.919 11.7198 26.0863C11.6537 26.2537 11.6396 26.437 11.6793 26.6125C11.719 26.788 11.8106 26.9474 11.9423 27.07L24.3733 38.673C24.7355 39.0106 25.2122 39.1982 25.7073 39.198H36.6613L31.8993 25.52Z" fill="#0078D4"/>
<path d="M14.1719 0.351674C13.7604 0.350128 13.3591 0.479594 13.0268 0.722248C12.6945 0.964903 12.4484 1.30745 12.3246 1.69986L0.544316 36.6027C0.439149 36.8959 0.406142 37.2101 0.448087 37.5188C0.490031 37.8274 0.605694 38.1215 0.785292 38.376C0.964891 38.6305 1.20314 38.838 1.47989 38.981C1.75665 39.1239 2.06376 39.1982 2.37526 39.1974H12.1147C12.4774 39.1326 12.8165 38.9727 13.0972 38.734C13.3779 38.4953 13.5902 38.1863 13.7124 37.8387L16.0615 30.9152L24.4531 38.7419C24.8046 39.0328 25.2457 39.1936 25.702 39.1974H36.6157L31.829 25.5189L17.8756 25.5222L26.4156 0.351088L14.1719 0.351674Z" fill="url(#paint1_linear_440_90128)"/>
<path d="M29.7539 1.67226C29.624 1.28712 29.3765 0.952453 29.0463 0.715428C28.7161 0.478402 28.3199 0.350965 27.9134 0.351074H14.3171C14.7235 0.351118 15.1197 0.478619 15.4498 0.715628C15.7799 0.952636 16.0274 1.28721 16.1574 1.67226L27.9569 36.6341C28.0557 36.9263 28.0834 37.2379 28.0378 37.5429C27.9923 37.848 27.8747 38.1378 27.6948 38.3884C27.515 38.639 27.278 38.8431 27.0036 38.9839C26.7291 39.1247 26.4251 39.198 26.1166 39.1979H39.7135C40.0218 39.1977 40.3257 39.1241 40.5999 38.9833C40.8742 38.8424 41.111 38.6383 41.2908 38.3878C41.4705 38.1373 41.5881 37.8476 41.6338 37.5427C41.6795 37.2377 41.6519 36.9263 41.5534 36.6341L29.7539 1.67226Z" fill="url(#paint2_linear_440_90128)"/>
<defs>
<linearGradient id="paint0_linear_440_90128" x1="86.6539" y1="3.23034" x2="83.6898" y2="44.7363" gradientUnits="userSpaceOnUse">
<stop stop-color="#114A8B"/>
<stop offset="1" stop-color="#0669BC"/>
</linearGradient>
<linearGradient id="paint1_linear_440_90128" x1="75.6902" y1="20.6729" x2="70.9081" y2="26.1689" gradientUnits="userSpaceOnUse">
<stop stop-opacity="0.3"/>
<stop offset="0.071" stop-opacity="0.2"/>
<stop offset="0.321" stop-opacity="0.1"/>
<stop offset="0.623" stop-opacity="0.05"/>
<stop offset="1" stop-opacity="0"/>
</linearGradient>
<linearGradient id="paint2_linear_440_90128" x1="20.9641" y1="2.13794" x2="34.8716" y2="39.1898" gradientUnits="userSpaceOnUse">
<stop stop-color="#3CCBF4"/>
<stop offset="1" stop-color="#2892DF"/>
</linearGradient>
</defs>
</svg>
