<svg width="204" height="37" viewBox="0 0 204 37" fill="none" xmlns="http://www.w3.org/2000/svg">
<path d="M34.5665 9.45379H37.225L40.7853 19.8634H40.9258L44.4861 9.45379H47.1446V23.8197H45.06V13.9501H44.9487L41.6344 23.7776H40.0768L36.7624 13.9291H36.6512V23.8197H34.5665V9.45379Z" fill="#339ADA" fill-opacity="0.7"/>
<path d="M49.4166 23.8197V13.0453H51.5364V23.8197H49.4166ZM50.4823 11.5161C50.1466 11.5161 49.8577 11.3828 49.6157 11.1162C49.3737 10.845 49.2527 10.52 49.2527 10.1412C49.2527 9.75776 49.3737 9.43275 49.6157 9.16619C49.8577 8.89496 50.1466 8.75935 50.4823 8.75935C50.822 8.75935 51.1109 8.89496 51.349 9.16619C51.591 9.43275 51.7121 9.75776 51.7121 10.1412C51.7121 10.52 51.591 10.845 51.349 11.1162C51.1109 11.3828 50.822 11.5161 50.4823 11.5161Z" fill="#339ADA" fill-opacity="0.7"/>
<path d="M57.6395 24.0301C56.7416 24.0301 55.9706 23.7939 55.3265 23.3216C54.6863 22.8493 54.1924 22.197 53.845 21.3646C53.5015 20.5275 53.3297 19.5641 53.3297 18.4745C53.3297 17.3803 53.5054 16.4146 53.8567 15.5775C54.208 14.7358 54.7038 14.0811 55.3441 13.6134C55.9882 13.1411 56.7494 12.905 57.6278 12.905C58.3578 12.905 59.0039 13.0663 59.566 13.389C60.1321 13.707 60.583 14.1582 60.9187 14.7428C61.2544 15.3227 61.4457 16.0007 61.4926 16.777H59.4665C59.3845 16.2579 59.1893 15.8254 58.8809 15.4793C58.5764 15.1286 58.1685 14.9532 57.6571 14.9532C57.2237 14.9532 56.8431 15.0935 56.5152 15.3741C56.1873 15.65 55.9316 16.0475 55.7481 16.5666C55.5685 17.0857 55.4787 17.7076 55.4787 18.4325C55.4787 19.1667 55.5685 19.798 55.7481 20.3264C55.9277 20.8502 56.1795 21.2547 56.5035 21.5399C56.8314 21.8205 57.2159 21.9608 57.6571 21.9608C57.9694 21.9608 58.2485 21.8907 58.4944 21.7504C58.7443 21.6054 58.9531 21.3973 59.121 21.1261C59.2889 20.8548 59.404 20.5251 59.4665 20.137H61.4926C61.4418 20.8993 61.2544 21.575 60.9304 22.1642C60.6064 22.7488 60.1653 23.2071 59.607 23.5391C59.0488 23.8664 58.3929 24.0301 57.6395 24.0301Z" fill="#339ADA" fill-opacity="0.7"/>
<path d="M63.2332 23.8197V13.0453H65.2885V14.841H65.3822C65.5462 14.219 65.8272 13.7397 66.2254 13.403C66.6275 13.0616 67.0862 12.8909 67.6015 12.8909C67.7186 12.8909 67.8494 12.898 67.9939 12.912C68.1422 12.9213 68.2652 12.9377 68.3628 12.9611V15.2969C68.273 15.2595 68.1305 15.2268 67.9353 15.1987C67.744 15.166 67.5586 15.1496 67.379 15.1496C66.9925 15.1496 66.6451 15.2502 66.3367 15.4513C66.0322 15.6477 65.7921 15.9212 65.6164 16.272C65.4408 16.6227 65.3529 17.0272 65.3529 17.4855V23.8197H63.2332Z" fill="#339ADA" fill-opacity="0.7"/>
<path d="M73.324 24.0301C72.4457 24.0301 71.6844 23.7986 71.0403 23.3357C70.3962 22.8727 69.8965 22.225 69.5412 21.3926C69.1899 20.5602 69.0142 19.5875 69.0142 18.4745C69.0142 17.3616 69.1899 16.3865 69.5412 15.5495C69.8965 14.7124 70.3962 14.0624 71.0403 13.5994C71.6844 13.1364 72.4457 12.905 73.324 12.905C74.2024 12.905 74.9636 13.1364 75.6077 13.5994C76.2519 14.0624 76.7496 14.7124 77.101 15.5495C77.4562 16.3865 77.6338 17.3616 77.6338 18.4745C77.6338 19.5875 77.4562 20.5602 77.101 21.3926C76.7496 22.225 76.2519 22.8727 75.6077 23.3357C74.9636 23.7986 74.2024 24.0301 73.324 24.0301ZM73.3357 21.9959C73.812 21.9959 74.2102 21.8392 74.5303 21.5259C74.8504 21.2079 75.0885 20.7823 75.2447 20.2492C75.4048 19.7161 75.4848 19.1222 75.4848 18.4675C75.4848 17.8082 75.4048 17.2119 75.2447 16.6788C75.0885 16.141 74.8504 15.7131 74.5303 15.3951C74.2102 15.0772 73.812 14.9182 73.3357 14.9182C72.8478 14.9182 72.4418 15.0772 72.1177 15.3951C71.7976 15.7131 71.5576 16.141 71.3975 16.6788C71.2413 17.2119 71.1633 17.8082 71.1633 18.4675C71.1633 19.1222 71.2413 19.7161 71.3975 20.2492C71.5576 20.7823 71.7976 21.2079 72.1177 21.5259C72.4418 21.8392 72.8478 21.9959 73.3357 21.9959Z" fill="#339ADA" fill-opacity="0.7"/>
<path d="M86.5418 15.8932L84.6094 16.1457C84.5548 15.9119 84.4592 15.6921 84.3225 15.4863C84.1898 15.2806 84.0102 15.1146 83.7838 14.9883C83.5574 14.862 83.2802 14.7989 82.9523 14.7989C82.5112 14.7989 82.1403 14.9135 81.8397 15.1426C81.543 15.3718 81.3966 15.6687 81.4005 16.0335C81.3966 16.3468 81.4923 16.6017 81.6874 16.7981C81.8865 16.9945 82.2145 17.1558 82.6712 17.2821L84.2054 17.6749C85.0564 17.8947 85.6889 18.2431 86.1027 18.7201C86.5204 19.1971 86.7312 19.8213 86.7351 20.593C86.7312 21.271 86.5653 21.8696 86.2373 22.3887C85.9133 22.9031 85.4624 23.3053 84.8847 23.5952C84.3069 23.8851 83.6433 24.0301 82.8937 24.0301C81.7929 24.0301 80.9067 23.7542 80.2352 23.2024C79.5638 22.6459 79.1636 21.8719 79.0348 20.8806L81.1019 20.6421C81.1956 21.1284 81.3947 21.4955 81.6992 21.7433C82.0037 21.9912 82.3999 22.1151 82.8879 22.1151C83.3915 22.1151 83.7955 21.9912 84.1 21.7433C84.4084 21.4955 84.5626 21.1892 84.5626 20.8244C84.5626 20.5158 84.4631 20.2609 84.264 20.0598C84.0688 19.8588 83.7643 19.7044 83.3505 19.5969L81.8163 19.2111C80.9535 18.996 80.3153 18.6335 79.9015 18.1238C79.4876 17.6094 79.2827 16.9594 79.2866 16.1738C79.2827 15.5097 79.433 14.9345 79.7375 14.4482C80.0459 13.9572 80.4734 13.5784 81.0199 13.3118C81.5703 13.0406 82.2047 12.905 82.923 12.905C83.977 12.905 84.8066 13.1739 85.4117 13.7116C86.0207 14.2494 86.3974 14.9766 86.5418 15.8932Z" fill="#339ADA" fill-opacity="0.7"/>
<path d="M92.4063 24.0301C91.528 24.0301 90.7667 23.7986 90.1226 23.3357C89.4785 22.8727 88.9788 22.225 88.6235 21.3926C88.2722 20.5602 88.0965 19.5875 88.0965 18.4745C88.0965 17.3616 88.2722 16.3865 88.6235 15.5495C88.9788 14.7124 89.4785 14.0624 90.1226 13.5994C90.7667 13.1364 91.528 12.905 92.4063 12.905C93.2847 12.905 94.0459 13.1364 94.6901 13.5994C95.3342 14.0624 95.8319 14.7124 96.1833 15.5495C96.5385 16.3865 96.7161 17.3616 96.7161 18.4745C96.7161 19.5875 96.5385 20.5602 96.1833 21.3926C95.8319 22.225 95.3342 22.8727 94.6901 23.3357C94.0459 23.7986 93.2847 24.0301 92.4063 24.0301ZM92.418 21.9959C92.8943 21.9959 93.2925 21.8392 93.6126 21.5259C93.9327 21.2079 94.1709 20.7823 94.327 20.2492C94.4871 19.7161 94.5671 19.1222 94.5671 18.4675C94.5671 17.8082 94.4871 17.2119 94.327 16.6788C94.1709 16.141 93.9327 15.7131 93.6126 15.3951C93.2925 15.0772 92.8943 14.9182 92.418 14.9182C91.9301 14.9182 91.5241 15.0772 91.2001 15.3951C90.8799 15.7131 90.6399 16.141 90.4798 16.6788C90.3236 17.2119 90.2456 17.8082 90.2456 18.4675C90.2456 19.1222 90.3236 19.7161 90.4798 20.2492C90.6399 20.7823 90.8799 21.2079 91.2001 21.5259C91.5241 21.8392 91.9301 21.9959 92.418 21.9959Z" fill="#339ADA" fill-opacity="0.7"/>
<path d="M103.071 13.0453V15.0093H97.7541V13.0453H103.071ZM99.0833 23.8197V12.0281C99.0833 11.3033 99.2082 10.7 99.4581 10.2184C99.7118 9.73671 100.051 9.37663 100.477 9.13814C100.902 8.89964 101.375 8.78039 101.894 8.78039C102.261 8.78039 102.587 8.81546 102.872 8.88561C103.157 8.95576 103.368 9.01889 103.504 9.07501L103.083 11.0391C102.993 11.0064 102.88 10.9736 102.743 10.9409C102.606 10.9035 102.454 10.8848 102.286 10.8848C101.892 10.8848 101.613 10.9993 101.449 11.2285C101.289 11.4529 101.209 11.7756 101.209 12.1965V23.8197H99.0833Z" fill="#339ADA" fill-opacity="0.7"/>
<path d="M109.222 13.0453V15.0093H104.052V13.0453H109.222ZM105.328 10.4639H107.448V20.5789C107.448 20.9203 107.491 21.1822 107.577 21.3646C107.667 21.5423 107.784 21.6638 107.928 21.7293C108.073 21.7948 108.233 21.8275 108.409 21.8275C108.541 21.8275 108.662 21.8158 108.772 21.7924C108.885 21.7691 108.971 21.748 109.029 21.7293L109.386 23.7144C109.273 23.7612 109.111 23.8126 108.9 23.8688C108.694 23.9249 108.44 23.9576 108.139 23.967C107.608 23.9857 107.13 23.8898 106.705 23.6794C106.279 23.4643 105.941 23.1322 105.691 22.6833C105.446 22.2344 105.325 21.6732 105.328 20.9998V10.4639Z" fill="#339ADA" fill-opacity="0.7"/>
<path d="M121.697 13.403C121.642 12.7904 121.412 12.3134 121.006 11.972C120.604 11.6307 120.08 11.46 119.436 11.46C118.983 11.46 118.595 11.5418 118.271 11.7055C117.947 11.8691 117.699 12.0913 117.527 12.3719C117.356 12.6524 117.268 12.9728 117.264 13.3329C117.264 13.6321 117.32 13.8917 117.434 14.1115C117.551 14.3313 117.709 14.5183 117.908 14.6726C118.107 14.8223 118.328 14.9485 118.57 15.0514C118.812 15.1543 119.056 15.2408 119.302 15.311L120.426 15.6477C120.879 15.7739 121.314 15.9446 121.732 16.1597C122.153 16.3748 122.53 16.6461 122.862 16.9734C123.198 17.3008 123.463 17.6959 123.658 18.1589C123.853 18.6219 123.951 19.1643 123.951 19.7863C123.951 20.628 123.771 21.3692 123.412 22.0099C123.053 22.6459 122.534 23.1439 121.855 23.504C121.179 23.8594 120.361 24.0371 119.401 24.0371C118.468 24.0371 117.658 23.8641 116.971 23.518C116.288 23.172 115.753 22.6669 115.367 22.0029C114.984 21.3388 114.777 20.5298 114.746 19.5758H116.883C116.914 20.0762 117.043 20.4924 117.27 20.8244C117.496 21.1565 117.791 21.4043 118.154 21.568C118.521 21.7317 118.931 21.8135 119.384 21.8135C119.856 21.8135 120.27 21.7293 120.625 21.561C120.984 21.3879 121.265 21.1494 121.468 20.8455C121.671 20.5368 121.775 20.1768 121.779 19.7652C121.775 19.3911 121.683 19.0825 121.503 18.8393C121.324 18.5915 121.072 18.3857 120.748 18.222C120.428 18.0537 120.053 17.904 119.624 17.7731L118.259 17.3522C117.272 17.0483 116.491 16.5876 115.917 15.9703C115.347 15.3484 115.062 14.523 115.062 13.4942C115.062 12.6478 115.253 11.9066 115.636 11.2706C116.022 10.6346 116.547 10.1412 117.211 9.79049C117.875 9.43509 118.626 9.25738 119.466 9.25738C120.317 9.25738 121.062 9.43509 121.702 9.79049C122.347 10.1412 122.852 10.6299 123.219 11.2565C123.586 11.8785 123.775 12.594 123.787 13.403H121.697Z" fill="#339ADA" fill-opacity="0.7"/>
<path d="M130.356 18.9936H132.323L133.489 20.8034L134.32 21.9818L136.317 25.0542H134.209L132.85 22.9919L132.271 22.0099L130.356 18.9936ZM136.604 16.6367C136.604 18.1846 136.362 19.5104 135.878 20.614C135.398 21.7129 134.742 22.5547 133.91 23.1392C133.083 23.7238 132.144 24.0161 131.094 24.0161C130.043 24.0161 129.103 23.7238 128.271 23.1392C127.443 22.55 126.788 21.7059 126.304 20.607C125.823 19.5034 125.583 18.1799 125.583 16.6367C125.583 15.0888 125.823 13.7654 126.304 12.6665C126.788 11.5628 127.443 10.7188 128.271 10.1342C129.103 9.54966 130.043 9.25738 131.094 9.25738C132.144 9.25738 133.083 9.54966 133.91 10.1342C134.742 10.7188 135.398 11.5628 135.878 12.6665C136.362 13.7654 136.604 15.0888 136.604 16.6367ZM134.42 16.6367C134.42 15.5471 134.277 14.6282 133.992 13.88C133.711 13.1271 133.321 12.5589 132.821 12.1755C132.321 11.7873 131.745 11.5932 131.094 11.5932C130.442 11.5932 129.866 11.7873 129.366 12.1755C128.866 12.5589 128.474 13.1271 128.189 13.88C127.908 14.6282 127.768 15.5471 127.768 16.6367C127.768 17.7263 127.908 18.6476 128.189 19.4005C128.474 20.1487 128.866 20.7169 129.366 21.105C129.866 21.4885 130.442 21.6802 131.094 21.6802C131.745 21.6802 132.321 21.4885 132.821 21.105C133.321 20.7169 133.711 20.1487 133.992 19.4005C134.277 18.6476 134.42 17.7263 134.42 16.6367Z" fill="#339ADA" fill-opacity="0.7"/>
<path d="M138.674 23.8197V9.45379H140.846V21.6381H146.128V23.8197H138.674Z" fill="#339ADA" fill-opacity="0.7"/>
<path d="M158.621 13.403C158.567 12.7904 158.336 12.3134 157.93 11.972C157.528 11.6307 157.005 11.46 156.361 11.46C155.908 11.46 155.52 11.5418 155.196 11.7055C154.872 11.8691 154.624 12.0913 154.452 12.3719C154.28 12.6524 154.192 12.9728 154.188 13.3329C154.188 13.6321 154.245 13.8917 154.358 14.1115C154.475 14.3313 154.634 14.5183 154.833 14.6726C155.032 14.8223 155.252 14.9485 155.494 15.0514C155.736 15.1543 155.98 15.2408 156.226 15.311L157.351 15.6477C157.803 15.7739 158.239 15.9446 158.656 16.1597C159.078 16.3748 159.455 16.6461 159.787 16.9734C160.122 17.3008 160.388 17.6959 160.583 18.1589C160.778 18.6219 160.876 19.1643 160.876 19.7863C160.876 20.628 160.696 21.3692 160.337 22.0099C159.978 22.6459 159.459 23.1439 158.779 23.504C158.104 23.8594 157.286 24.0371 156.326 24.0371C155.393 24.0371 154.583 23.8641 153.896 23.518C153.213 23.172 152.678 22.6669 152.291 22.0029C151.909 21.3388 151.702 20.5298 151.671 19.5758H153.808C153.839 20.0762 153.968 20.4924 154.194 20.8244C154.421 21.1565 154.715 21.4043 155.079 21.568C155.446 21.7317 155.855 21.8135 156.308 21.8135C156.781 21.8135 157.194 21.7293 157.55 21.561C157.909 21.3879 158.19 21.1494 158.393 20.8455C158.596 20.5368 158.699 20.1768 158.703 19.7652C158.699 19.3911 158.608 19.0825 158.428 18.8393C158.248 18.5915 157.997 18.3857 157.673 18.222C157.353 18.0537 156.978 17.904 156.548 17.7731L155.184 17.3522C154.196 17.0483 153.416 16.5876 152.842 15.9703C152.272 15.3484 151.987 14.523 151.987 13.4942C151.987 12.6478 152.178 11.9066 152.561 11.2706C152.947 10.6346 153.472 10.1412 154.136 9.79049C154.799 9.43509 155.551 9.25738 156.39 9.25738C157.241 9.25738 157.987 9.43509 158.627 9.79049C159.271 10.1412 159.777 10.6299 160.144 11.2565C160.511 11.8785 160.7 12.594 160.712 13.403H158.621Z" fill="#339ADA" fill-opacity="0.7"/>
<path d="M166.701 24.0301C165.799 24.0301 165.02 23.8056 164.364 23.3567C163.712 22.9031 163.211 22.2624 162.859 21.4347C162.508 20.6023 162.332 19.6226 162.332 18.4956C162.332 17.3873 162.508 16.4146 162.859 15.5775C163.215 14.7358 163.71 14.0811 164.347 13.6134C164.983 13.1411 165.731 12.905 166.589 12.905C167.144 12.905 167.667 13.0125 168.159 13.2276C168.655 13.4381 169.092 13.7654 169.47 14.2097C169.853 14.6539 170.154 15.2198 170.372 15.9072C170.591 16.59 170.7 17.4037 170.7 18.3483V19.1269H163.328V17.4153H168.668C168.664 16.929 168.576 16.4964 168.405 16.1176C168.233 15.7342 167.993 15.4326 167.684 15.2128C167.38 14.993 167.025 14.8831 166.619 14.8831C166.185 14.8831 165.805 15.0093 165.477 15.2619C165.149 15.5097 164.893 15.8371 164.71 16.2439C164.53 16.6461 164.438 17.088 164.435 17.5697V19.0638C164.435 19.6904 164.53 20.2282 164.721 20.6771C164.913 21.1214 165.18 21.4628 165.524 21.7013C165.867 21.9351 166.269 22.052 166.73 22.052C167.038 22.052 167.317 22.0005 167.567 21.8977C167.817 21.7901 168.034 21.6334 168.217 21.4277C168.401 21.2219 168.539 20.9671 168.633 20.6631L170.612 20.9297C170.487 21.5563 170.249 22.1034 169.898 22.5711C169.55 23.034 169.105 23.3941 168.563 23.6513C168.02 23.9038 167.399 24.0301 166.701 24.0301Z" fill="#339ADA" fill-opacity="0.7"/>
<path d="M172.493 23.8197V13.0453H174.549V14.841H174.643C174.806 14.219 175.088 13.7397 175.486 13.403C175.888 13.0616 176.347 12.8909 176.862 12.8909C176.979 12.8909 177.11 12.898 177.254 12.912C177.402 12.9213 177.525 12.9377 177.623 12.9611V15.2969C177.533 15.2595 177.391 15.2268 177.196 15.1987C177.004 15.166 176.819 15.1496 176.639 15.1496C176.253 15.1496 175.905 15.2502 175.597 15.4513C175.292 15.6477 175.052 15.9212 174.877 16.272C174.701 16.6227 174.613 17.0272 174.613 17.4855V23.8197H172.493Z" fill="#339ADA" fill-opacity="0.7"/>
<path d="M187.339 13.0453L184.136 23.8197H181.794L178.591 13.0453H180.851L182.918 21.0489H183.012L185.085 13.0453H187.339Z" fill="#339ADA" fill-opacity="0.7"/>
<path d="M192.482 24.0301C191.58 24.0301 190.801 23.8056 190.145 23.3567C189.494 22.9031 188.992 22.2624 188.641 21.4347C188.289 20.6023 188.114 19.6226 188.114 18.4956C188.114 17.3873 188.289 16.4146 188.641 15.5775C188.996 14.7358 189.492 14.0811 190.128 13.6134C190.764 13.1411 191.512 12.905 192.371 12.905C192.925 12.905 193.448 13.0125 193.94 13.2276C194.436 13.4381 194.873 13.7654 195.252 14.2097C195.634 14.6539 195.935 15.2198 196.153 15.9072C196.372 16.59 196.481 17.4037 196.481 18.3483V19.1269H189.109V17.4153H194.449C194.446 16.929 194.358 16.4964 194.186 16.1176C194.014 15.7342 193.774 15.4326 193.466 15.2128C193.161 14.993 192.806 14.8831 192.4 14.8831C191.967 14.8831 191.586 15.0093 191.258 15.2619C190.93 15.5097 190.674 15.8371 190.491 16.2439C190.311 16.6461 190.22 17.088 190.216 17.5697V19.0638C190.216 19.6904 190.311 20.2282 190.503 20.6771C190.694 21.1214 190.961 21.4628 191.305 21.7013C191.648 21.9351 192.051 22.052 192.511 22.052C192.82 22.052 193.099 22.0005 193.349 21.8977C193.598 21.7901 193.815 21.6334 193.999 21.4277C194.182 21.2219 194.321 20.9671 194.414 20.6631L196.394 20.9297C196.269 21.5563 196.03 22.1034 195.679 22.5711C195.332 23.034 194.887 23.3941 194.344 23.6513C193.801 23.9038 193.181 24.0301 192.482 24.0301Z" fill="#339ADA" fill-opacity="0.7"/>
<path d="M198.275 23.8197V13.0453H200.33V14.841H200.424C200.588 14.219 200.869 13.7397 201.267 13.403C201.669 13.0616 202.128 12.8909 202.643 12.8909C202.76 12.8909 202.891 12.898 203.035 12.912C203.184 12.9213 203.307 12.9377 203.404 12.9611V15.2969C203.315 15.2595 203.172 15.2268 202.977 15.1987C202.786 15.166 202.6 15.1496 202.421 15.1496C202.034 15.1496 201.687 15.2502 201.378 15.4513C201.074 15.6477 200.834 15.9212 200.658 16.272C200.482 16.6227 200.394 17.0272 200.394 17.4855V23.8197H198.275Z" fill="#339ADA" fill-opacity="0.7"/>
<path d="M17.749 17.5696L11.7319 19.9305L6.49117 22.7028L5.02794 23.1678C4.65467 23.5971 4.26647 24.0263 3.83347 24.4556C3.37061 24.9385 2.93762 25.3678 2.60914 25.6897C2.23587 26.0474 1.69836 26.6913 1.41467 27.1027C0.996606 27.7287 0.668125 28.3905 0.533747 28.8913C0.279922 29.8034 0.399371 30.7335 0.892089 31.592C1.50426 32.683 2.74352 33.792 4.17688 34.5432C4.90849 34.9366 6.14776 35.4196 7.07347 35.7057C8.61135 36.1708 11.5975 36.6895 13.2399 36.761C13.5684 36.7789 14.0163 36.7789 14.0313 36.761C14.0611 36.7252 14.3299 36.1529 14.6136 35.4196C15.6289 32.9513 16.3455 30.6262 16.7487 28.6587C16.9876 27.4604 17.1667 25.8686 17.3011 23.9727C17.331 23.4361 17.3459 21.6654 17.316 21.0752C17.2713 20.0915 17.1966 19.3045 17.0921 18.5175C17.0772 18.4102 17.0622 18.3029 17.0772 18.3029C17.0921 18.285 17.1518 18.2671 17.8984 18.0167L17.749 17.5696ZM16.3754 18.5354C16.4351 18.5354 16.5695 20.2167 16.6143 21.2719C16.6292 21.4866 16.6143 21.6475 16.6143 21.6475C16.5844 21.6475 15.8528 21.1289 15.3153 20.7354C14.8674 20.3955 14.0014 19.698 13.867 19.5728C13.8222 19.537 13.8222 19.537 14.1955 19.376C14.8226 19.1078 16.3157 18.5354 16.3754 18.5354ZM13.2996 19.7516C13.3444 19.7516 13.449 19.8232 13.7028 20.002C14.6434 20.6996 15.9125 21.5581 16.465 21.8443C16.6292 21.9337 16.6442 21.8979 16.2709 22.2199C15.4497 22.8995 14.4045 23.5613 13.1503 24.2231C12.9264 24.3483 12.7472 24.4377 12.7323 24.4377C12.7173 24.4377 12.7472 24.2946 12.792 24.1337C13.0906 22.7743 13.2698 21.3971 13.2847 20.3061C13.2549 19.7516 13.2549 19.7516 13.2996 19.7516ZM12.6725 20.0378C12.7024 20.0736 12.6875 21.2898 12.6427 21.6297C12.568 22.4166 12.4337 23.1678 12.2246 24.0085C12.1798 24.2052 12.135 24.3841 12.1201 24.3841C12.1052 24.4198 11.4781 23.6865 11.269 23.4003C10.9107 22.9174 10.6419 22.4166 10.4329 21.9337C10.3284 21.6833 10.1642 21.2004 10.1791 21.2004C10.2537 21.1288 12.6576 20.0199 12.6725 20.0378ZM9.7013 21.4329C9.73117 21.4508 9.76103 21.5402 9.77596 21.6297C9.92527 22.1126 10.2537 22.8101 10.5374 23.2394C10.851 23.7223 11.2541 24.2589 11.5826 24.5987C11.6871 24.706 11.7916 24.8133 11.8066 24.8312C11.8364 24.867 11.8364 24.867 11.1048 25.1889C10.2388 25.5824 9.3131 25.9759 8.23808 26.3873C7.98425 26.4946 7.73043 26.584 7.4766 26.6913C7.43181 26.7092 7.44674 26.6734 7.56619 26.4588C8.1037 25.4572 8.90996 23.5077 9.35789 22.1126C9.43255 21.8801 9.5072 21.6297 9.52213 21.576C9.53706 21.5044 9.56693 21.4687 9.62665 21.4329C9.65651 21.4508 9.68637 21.4329 9.7013 21.4329ZM8.79052 21.88C8.80545 21.8979 8.56656 22.4703 8.34259 23.0069C7.89467 24.0442 7.41688 25.0458 6.77485 26.2799C6.67034 26.4946 6.56582 26.6913 6.55089 26.7092C6.52103 26.745 6.52103 26.745 6.44637 26.5661C6.29706 26.2084 6.16269 25.7255 6.10296 25.2962C6.02831 24.867 6.04324 24.1337 6.13282 23.6686C6.19255 23.3288 6.19255 23.3288 6.32693 23.2573C6.87937 22.9174 8.76066 21.8622 8.79052 21.88ZM16.6292 22.2735V22.5061C16.6292 23.7223 16.5247 25.3857 16.3605 26.6019C16.3306 26.8165 16.3157 26.9954 16.3007 26.9954C16.3007 26.9954 16.1664 26.9596 16.0171 26.9059C15.3302 26.6555 14.5986 26.2799 13.9267 25.8328C13.4788 25.5466 12.8368 25.0637 12.8666 25.0458C12.8666 25.0458 13.0608 24.9206 13.2847 24.7775C14.1806 24.2231 15.0316 23.615 15.7782 23.0247C16.0619 22.8101 16.4799 22.4345 16.5695 22.3451L16.6292 22.2735ZM5.35642 23.8833C5.37135 23.8833 5.37135 23.919 5.34149 24.1158C5.32656 24.2589 5.2967 24.5271 5.2967 24.706C5.26684 25.493 5.37135 26.0832 5.69983 26.8881C5.78941 27.1027 5.86407 27.2994 5.86407 27.2994C5.83421 27.3352 2.81817 28.3905 1.87753 28.6945C1.59384 28.784 1.35495 28.8734 1.32508 28.8734C1.29522 28.8913 1.29522 28.8734 1.29522 28.784C1.39974 27.9791 1.90739 26.9417 2.62407 26.0474C3.10186 25.4572 3.47513 25.1174 4.11716 24.6702C4.58001 24.3841 5.28176 23.9011 5.35642 23.8833C5.34149 23.8833 5.34149 23.8833 5.35642 23.8833ZM12.4486 25.4035C12.4486 25.4035 12.568 25.4751 12.6875 25.5645C13.658 26.2442 15.0167 26.8702 16.1664 27.1921L16.2709 27.2279L16.1216 27.3173C15.5094 27.7287 13.5236 28.7124 11.493 29.6246C11.1944 29.7498 10.9107 29.8929 10.851 29.9108C10.7913 29.9465 10.7465 29.9465 10.7465 29.9465C10.7465 29.9465 10.8211 29.7498 10.9256 29.5173C11.493 28.2474 12.0604 26.6913 12.359 25.6182C12.4187 25.493 12.4486 25.4035 12.4486 25.4035ZM11.7319 25.6897C11.7319 25.6897 11.702 25.8149 11.6572 25.9401C11.2541 27.0848 10.7465 28.3368 10.0746 29.7498C9.91034 30.1075 9.76103 30.3937 9.76103 30.3937C9.76103 30.3937 9.62665 30.3042 9.46241 30.179C8.4919 29.4636 7.64084 28.6051 7.0884 27.7466L7.01375 27.6214L7.43181 27.4783C8.90997 26.9954 10.1791 26.4767 11.4333 25.8328C11.5677 25.7613 11.717 25.6897 11.7319 25.6897ZM16.2261 27.5677C16.2261 27.6929 16.0021 28.8197 15.808 29.6246C15.6438 30.3042 15.5094 30.8408 15.2556 31.7888C15.1511 32.2001 15.0466 32.54 15.0466 32.54C15.0466 32.54 15.0167 32.54 14.9868 32.5221C13.6431 32.2359 12.4187 31.8245 11.284 31.2701C10.9704 31.1091 10.5076 30.8766 10.4777 30.8408C10.4628 30.8229 10.7465 30.6798 11.0899 30.501C13.1653 29.41 15.3004 28.1937 16.0469 27.6571C16.1365 27.6035 16.2112 27.5677 16.2261 27.5677ZM5.84914 27.997C5.86407 28.0149 5.28177 28.9986 4.4755 30.3579C4.19181 30.8408 3.86333 31.3953 3.74388 31.592C3.62444 31.8066 3.43034 32.1286 3.32582 32.3253L3.13172 32.683L2.92269 32.4684C2.68379 32.2359 2.26573 31.7172 2.07163 31.431C1.68342 30.8408 1.41467 30.2327 1.31015 29.6782C1.26536 29.41 1.26536 29.2847 1.31015 29.2669C1.38481 29.249 2.59421 28.9092 3.72895 28.5872C4.35605 28.4084 5.08766 28.2116 5.35642 28.1222C5.62517 28.0506 5.83421 27.997 5.84914 27.997ZM6.43144 28.2653L6.58075 28.462C7.23771 29.3384 7.9096 29.9823 8.71587 30.5546C8.86517 30.6441 8.96969 30.7335 8.95476 30.7514C8.9249 30.7872 6.14776 31.9676 4.84877 32.4863C4.13209 32.7904 3.53485 33.0408 3.51992 33.0408L3.43034 32.9692L3.35568 32.8977L3.49006 32.6652C3.92306 31.9318 4.46057 31.1091 5.62518 29.4278L6.43144 28.2653ZM10.0596 31.3774C10.0596 31.3774 10.2687 31.4668 10.5076 31.5741C11.1048 31.8424 11.5677 32.0034 12.1948 32.2001C12.9712 32.4326 14.091 32.6652 14.7479 32.7367C14.8525 32.7546 14.8972 32.7546 14.8823 32.7725C14.8525 32.7904 14.1806 33.0587 13.6878 33.2554C12.9114 33.5416 10.5225 34.4001 8.56656 35.0619C8.20822 35.1871 7.89467 35.2944 7.87974 35.2944C7.83494 35.3123 7.68564 35.2586 7.68564 35.2407C7.68564 35.2228 7.79015 35.0619 7.92453 34.883C8.58149 33.9529 9.22352 32.8977 9.77596 31.914C9.92527 31.592 10.0596 31.3774 10.0596 31.3774ZM9.25338 31.3953C9.25338 31.3953 8.93983 32.0213 8.37246 33.0944C8.13356 33.5416 7.86481 34.0603 7.76029 34.2391C7.67071 34.418 7.53633 34.6862 7.46167 34.8472L7.32729 35.1334L7.25264 35.1155C7.0884 35.0619 5.93872 34.5789 5.6401 34.4359C5.26683 34.257 4.87863 34.0424 4.58001 33.8456C4.22167 33.6131 3.75882 33.2554 3.80361 33.2554C3.81854 33.2554 4.4307 33.0408 5.19218 32.8082C7.17798 32.1644 8.28287 31.7888 9.01448 31.5026C9.13393 31.431 9.25338 31.3953 9.25338 31.3953ZM14.9122 32.9871C14.942 33.0408 14.1955 35.4911 13.9267 36.2602C13.867 36.4391 13.8521 36.4748 13.8073 36.4748C13.7326 36.4748 12.6576 36.296 12.0156 36.1708C10.8808 35.9561 8.98462 35.5627 8.50683 35.4375L8.40232 35.4017L9.07421 35.2228C10.5374 34.8293 11.2243 34.6147 11.9409 34.3643C12.8368 34.0424 13.7177 33.631 14.6136 33.1302C14.7629 33.0586 14.8823 32.9871 14.9122 32.9871Z" fill="url(#paint0_linear_440_90129)"/>
<path d="M11.5378 0.774751C11.4333 0.756865 9.82073 1.45441 8.77557 1.95521C7.37207 2.63487 6.28212 3.29664 5.61023 3.86899C5.3564 4.08362 5.04285 4.45922 4.99806 4.6023C4.98313 4.65596 4.9682 4.7275 4.9682 4.78116L5.58036 5.47871L7.02866 6.03316L10.4777 6.76648L14.4194 7.57134L14.4642 7.15997H14.4344L13.9118 7.07054L13.8073 6.85591C13.2698 5.72911 12.6725 4.31613 12.3291 3.36819C12.0604 2.63487 11.8065 1.77635 11.6722 1.16824C11.5975 0.792636 11.5826 0.774751 11.5378 0.774751ZM11.4631 1.04304C11.4781 1.04304 11.493 1.20401 11.5079 1.38287C11.5826 2.15195 11.7319 2.88527 11.9558 3.67224C12.1201 4.28036 12.1201 4.24459 11.926 4.17304C11.4631 4.01207 9.38774 3.58282 7.87972 3.33241C7.64082 3.29664 7.43179 3.26087 7.43179 3.24299C7.41686 3.2251 8.52175 2.52756 8.99953 2.25927C9.62663 1.91944 11.3437 1.07881 11.4631 1.04304ZM7.07345 3.49339L7.25262 3.56493C8.22313 3.95842 10.6419 4.51287 11.9857 4.63807C12.135 4.65596 12.2694 4.67385 12.2694 4.67385C12.2694 4.67385 12.1499 4.76328 11.9857 4.8527C11.3437 5.24619 10.627 5.71122 10.1343 6.08682C9.98497 6.19413 9.85059 6.28356 9.83566 6.28356C9.82073 6.28356 9.71622 6.26568 9.62663 6.24779L9.44746 6.21202L8.99953 5.67545C8.19327 4.74539 7.56617 4.02996 7.32728 3.74379L7.07345 3.49339ZM6.89428 3.65436L7.53631 4.62019C7.87972 5.15676 8.23806 5.65756 8.31271 5.78276C8.38737 5.89008 8.44709 5.99739 8.44709 5.99739C8.43216 6.01528 7.52138 5.80065 7.04359 5.67545C6.55087 5.53236 6.34184 5.47871 6.04322 5.35351L5.7894 5.26408V5.19253C5.7894 4.83482 6.1776 4.28036 6.83456 3.7259L6.89428 3.65436ZM12.344 4.96002C12.359 4.96002 12.3888 5.01368 12.4336 5.15676C12.5829 5.56813 13.0757 6.65917 13.1951 6.8738C13.225 6.94534 13.2996 6.94534 12.6576 6.82014C11.1197 6.51608 10.627 6.42665 10.627 6.40876C10.627 6.40876 10.6718 6.37299 10.7315 6.31934C11.2093 5.99739 11.6871 5.60391 12.1201 5.17465C12.2246 5.06733 12.3142 4.9779 12.344 4.96002Z" fill="url(#paint1_linear_440_90129)"/>
<path d="M5.02795 4.51313C5.02795 4.51313 4.92343 4.70988 5.02795 4.99605C5.08767 5.17491 5.26684 5.38954 5.46094 5.60416C5.46094 5.60416 7.49154 7.96509 7.73043 8.30491C8.85025 9.86098 9.34297 11.3813 9.38776 13.4739C9.41762 14.8332 9.20859 16.0137 8.67108 17.3909C7.73043 19.8591 5.7297 22.5956 2.65394 25.6183L3.10186 25.4395C3.38555 25.1712 3.78868 24.9029 4.7144 24.2948C6.86444 22.8818 9.26831 21.594 12.2246 20.2705C16.4799 18.3567 23.4825 16.1031 27.469 15.3698L27.8871 15.2982L27.8274 15.173C27.469 14.4934 27.2152 14.082 26.9166 13.6349C26.0506 12.3292 24.9905 11.2918 23.6915 10.4154C21.9148 9.21709 19.6005 8.28703 16.674 7.58948C16.1216 7.46428 14.9122 7.21388 13.9267 7.03503C11.8364 6.64154 10.4926 6.37325 9.01449 6.0692C8.47698 5.96188 7.68564 5.80091 7.16306 5.65782C6.89431 5.58628 6.37172 5.44319 5.95366 5.26434C5.59532 5.13913 5.13246 4.97816 5.02795 4.51313ZM6.20748 5.89034C6.20748 5.89034 6.28214 5.92611 6.38665 5.96188C6.56582 6.03342 6.78979 6.12285 7.04361 6.1944C7.23772 6.26594 7.44675 6.31959 7.64085 6.39114C7.9096 6.48057 8.1485 6.55211 8.1485 6.55211C8.17836 6.58788 8.64122 8.35857 8.79053 9.02034C8.85025 9.27075 8.89504 9.50326 8.89504 9.50326C8.89504 9.50326 8.83532 9.41383 8.77559 9.28863C8.23808 8.16183 7.40195 7.03503 6.43145 6.10497C6.29707 5.97977 6.20748 5.89034 6.20748 5.89034ZM8.44711 6.62365C8.47698 6.62365 8.56656 6.64154 8.68601 6.67731C9.46241 6.89194 10.851 7.196 11.7319 7.37485C11.8812 7.41062 12.0007 7.42851 12.0007 7.4464C12.0007 7.46428 11.9409 7.50006 11.8812 7.53583C11.7319 7.62526 11.1197 8.05451 10.9256 8.21549C10.418 8.62686 9.97007 9.05612 9.64159 9.4496L9.40269 9.73577C9.40269 9.73577 9.37283 9.64635 9.3579 9.52114C9.19366 8.76994 8.85025 7.64314 8.5367 6.85617C8.47698 6.74885 8.43218 6.62365 8.44711 6.62365C8.43218 6.62365 8.43218 6.62365 8.44711 6.62365ZM12.3739 7.51794C12.4038 7.53583 12.4486 7.71469 12.5382 8.12606C12.7024 8.91303 12.7771 9.80732 12.7621 10.6301C12.7472 10.8626 12.7472 11.0772 12.7323 11.0951L12.7173 11.1487L12.4785 11.0593C11.9857 10.8805 11.1944 10.5943 10.5225 10.3618C10.1343 10.2366 9.82075 10.1293 9.82075 10.1114C9.82075 10.0756 10.3881 9.39595 10.627 9.14555C11.0899 8.66263 12.3441 7.50005 12.3739 7.51794ZM12.6875 7.5716C12.7024 7.55371 14.5688 7.9472 15.4198 8.14394C16.0469 8.28703 16.9726 8.51954 17.0324 8.55531C17.0622 8.5732 16.9577 8.62686 16.6591 8.78783C15.4646 9.43172 14.5688 10.0219 13.6729 10.7195C13.434 10.8983 13.2399 11.0593 13.2399 11.0593C13.2399 11.0593 13.225 10.8983 13.225 10.7195C13.225 9.68212 13.0458 8.64474 12.7323 7.75046C12.7173 7.66103 12.6875 7.58948 12.6875 7.5716ZM17.5251 8.71628C17.54 8.73417 17.4803 9.18131 17.4206 9.43172C17.2563 10.2366 16.8084 11.4528 16.2709 12.5796C16.1813 12.7764 16.0917 12.9373 16.0768 12.9552C16.0619 12.9552 15.9424 12.8837 15.808 12.7764C15.2855 12.4008 14.6733 12.0609 14.0313 11.739C13.8521 11.6496 13.6878 11.578 13.6878 11.5601C13.658 11.5244 15.1212 10.3618 15.8976 9.80732C16.5098 9.36017 17.5102 8.6984 17.5251 8.71628ZM17.8685 8.78783C17.9133 8.78783 18.7345 9.05612 19.1675 9.21709C20.2425 9.59269 21.4668 10.1293 22.2582 10.5764L22.5866 10.7553L22.3478 10.8268C20.3918 11.3634 18.7196 11.9894 17.107 12.7764C16.9726 12.8479 16.8532 12.9016 16.8532 12.9016C16.8383 12.9016 16.8831 12.7764 16.9428 12.6154C17.4355 11.3813 17.749 10.0935 17.8237 8.98457C17.8536 8.87726 17.8685 8.78783 17.8685 8.78783ZM9.62665 11.0593C9.64159 11.0414 10.2687 11.2203 10.6121 11.3455C11.1347 11.5244 12.2246 11.9536 12.2246 11.9894C12.2246 11.9894 12.1052 12.1146 11.9559 12.2756C11.3586 12.8658 10.7913 13.4918 10.1044 14.2966C9.89541 14.5292 9.73117 14.7259 9.71624 14.7259C9.70131 14.7259 9.70131 14.6901 9.70131 14.6544C9.80583 13.7422 9.77596 12.5617 9.64159 11.3634C9.64159 11.1845 9.62665 11.0593 9.62665 11.0593ZM22.9151 11.0772C22.9301 11.0951 22.6165 11.6496 22.4373 11.9715C22.1686 12.4365 21.7654 13.0625 20.8547 14.4218C20.3769 15.1373 19.8394 15.96 19.6602 16.2283C19.481 16.4966 19.3317 16.7291 19.3168 16.7291C19.3168 16.7291 19.2571 16.6397 19.1824 16.5145C18.6748 15.6023 18.0626 14.7974 17.3459 14.082C17.2115 13.9389 17.0622 13.7958 17.0025 13.7601C16.9577 13.7243 16.9129 13.6706 16.9129 13.6706C16.9129 13.6528 17.6893 13.2593 18.2716 12.9731C19.3019 12.4723 20.7054 11.8642 21.7505 11.4886C22.3179 11.2561 22.9151 11.0593 22.9151 11.0772ZM23.2735 11.1845C23.2884 11.1845 23.4078 11.2382 23.5273 11.3455C24.6322 12.0967 25.7221 13.0804 26.5732 14.082C26.8121 14.3682 27.4093 15.1015 27.3944 15.1194C27.3944 15.1194 27.1854 15.1373 26.9465 15.1552C25.0353 15.334 22.5867 15.8169 20.2276 16.4966C20.0633 16.5324 19.929 16.586 19.914 16.586C19.8991 16.586 20.0783 16.3714 20.3022 16.121C21.6908 14.5292 22.3179 13.5097 23.0644 11.7211C23.169 11.417 23.2585 11.2024 23.2735 11.1845C23.2585 11.1845 23.2585 11.1845 23.2735 11.1845ZM13.1354 12.4186C13.1951 12.4365 13.7924 12.7764 14.2403 13.0268C14.6434 13.2772 15.2705 13.6706 15.3004 13.6885C15.3004 13.6885 15.0914 13.8316 14.8226 13.9926C13.9715 14.5113 13.2399 14.9942 12.4635 15.5486C12.2396 15.7096 12.0604 15.8348 12.0604 15.8348C12.0455 15.8348 12.0455 15.8169 12.1649 15.5486C12.568 14.6544 12.8965 13.5812 13.0906 12.5438C13.1055 12.4723 13.1205 12.4186 13.1354 12.4186ZM12.5531 12.5617C12.568 12.5796 12.4187 13.2414 12.3142 13.617C12.135 14.3145 11.8066 15.173 11.5079 15.8348C11.4333 15.9958 11.3288 16.2104 11.2691 16.3356L11.1496 16.5502L10.8958 16.2641C10.5972 15.9242 10.3583 15.7096 10.0447 15.5129C9.92527 15.4413 9.82075 15.3698 9.82075 15.3519C9.82075 15.3161 10.5972 14.4576 11.1944 13.8495C11.6274 13.4024 12.5382 12.5438 12.5531 12.5617ZM16.1664 14.3324L16.3903 14.5113C16.898 14.9048 17.4952 15.4413 17.9581 15.9064C18.2119 16.1568 18.7196 16.6933 18.8241 16.8364L18.8838 16.908L18.5105 17.0332C16.4202 17.7307 14.8226 18.3388 12.9413 19.1616C12.7323 19.251 12.5531 19.3225 12.5382 19.3225C12.5083 19.3225 12.4934 19.3583 12.9562 18.8396C14.1507 17.5161 15.2257 16.0494 16.0171 14.6365L16.1664 14.3324ZM15.2108 14.6186C15.2257 14.6365 14.5986 15.6738 14.2254 16.282C13.7774 16.9974 12.9861 18.1779 12.4486 18.9469C12.2246 19.2689 12.0305 19.5372 12.0156 19.5372C12.0007 19.5372 12.0007 19.4656 12.0007 19.3404C12.0007 18.6787 11.8663 17.9811 11.6125 17.373C11.5079 17.1226 11.493 17.0689 11.5079 17.0332C11.5975 16.9437 12.9114 16.0316 13.7625 15.495C14.3149 15.1373 15.1959 14.6007 15.2108 14.6186ZM9.46241 16.2998C9.47735 16.2998 9.58186 16.3714 9.70131 16.4429C9.98499 16.6397 10.2537 16.8543 10.4777 17.0689C10.4926 17.0868 10.3732 17.1941 10.209 17.3372C9.77596 17.7128 9.119 18.3031 8.74573 18.6608C8.3426 19.0364 8.32767 19.0543 8.37246 18.9648C8.67108 18.4104 8.82038 18.1063 8.98462 17.7128C9.119 17.3551 9.26831 16.9437 9.37283 16.5681C9.40269 16.425 9.44748 16.2998 9.46241 16.2998ZM11.0003 17.7486C11.0302 17.7486 11.0451 17.7844 11.1795 18.0169C11.4333 18.4819 11.6423 19.1079 11.6871 19.6087L11.702 19.716L11.0749 20.0022C9.95513 20.5209 8.9249 21.0396 8.23808 21.4152C8.04398 21.5225 7.70057 21.7192 7.47661 21.8444C7.25265 21.9875 7.07348 22.0769 7.07348 22.0769C7.07348 22.0769 7.20785 21.9517 7.38702 21.7908C8.74573 20.6103 9.92527 19.3047 10.8062 18.0169C10.8958 17.8738 10.9854 17.7486 11.0003 17.7486ZM10.2985 17.9453C10.3135 17.9632 9.79089 18.6787 9.44748 19.1079C8.56656 20.1811 7.70057 21.0217 6.62555 21.8444C6.49117 21.9517 6.37172 22.0412 6.35679 22.0591C6.32693 22.0769 6.37172 22.0233 6.83458 21.4152C7.1332 21.0217 7.35716 20.6997 7.62592 20.3063C7.80509 20.038 7.83495 20.0022 8.07384 19.7876C8.7308 19.1795 10.2687 17.9275 10.2985 17.9453Z" fill="url(#paint2_radial_440_90129)"/>
<defs>
<linearGradient id="paint0_linear_440_90129" x1="53.0039" y1="30.0753" x2="56.3038" y2="19.9992" gradientUnits="userSpaceOnUse">
<stop stop-color="#909CA9"/>
<stop offset="1" stop-color="#EDEDEE"/>
</linearGradient>
<linearGradient id="paint1_linear_440_90129" x1="0.782616" y1="18.8103" x2="38.2121" y2="18.8103" gradientUnits="userSpaceOnUse">
<stop stop-color="#939FAB"/>
<stop offset="1" stop-color="#DCDEE1"/>
</linearGradient>
<radialGradient id="paint2_radial_440_90129" cx="0" cy="0" r="1" gradientTransform="matrix(-2.23234 -0.401684 -0.67818 5.34827 13.813 13.7866)" gradientUnits="userSpaceOnUse">
<stop stop-color="#377F9F"/>
<stop offset="1" stop-color="#339ADA"/>
</radialGradient>
</defs>
</svg>
