<svg width="229" height="42" viewBox="0 0 229 42" fill="none" xmlns="http://www.w3.org/2000/svg">
<g clip-path="url(#clip0_440_90102)">
<path fill-rule="evenodd" clip-rule="evenodd" d="M5.77035 27.9069L5.27699 29.7125C5.09312 30.2902 4.83556 31.1386 4.69661 31.8937C4.4987 32.4158 4.39062 32.9822 4.39062 33.5738C4.39062 36.0133 6.23354 38.0217 8.60279 38.2842C9.26949 38.3804 10.0239 38.3754 10.8696 38.2512L14.7547 37.7151C15.7316 37.5804 16.5337 36.8751 16.7934 35.9234L19.4673 26.1025L5.77035 27.9069Z" fill="url(#paint0_linear_440_90102)"/>
<path d="M9.56071 28.3719C5.46575 29.0063 4.625 32.0963 4.625 32.0963L8.54662 17.6871L29.0382 14.915L26.2437 25.0651C26.0984 25.609 25.6416 26.0258 25.0752 26.1121L24.9608 26.1311L9.44561 28.3916L9.56071 28.3719Z" fill="url(#paint1_linear_440_90102)"/>
<path d="M9.56071 28.3719C5.46575 29.0063 4.625 32.0963 4.625 32.0963L8.54662 17.6871L29.0382 14.915L26.2437 25.0651C26.0984 25.609 25.6416 26.0258 25.0752 26.1121L24.9608 26.1311L9.44561 28.3916L9.56071 28.3719Z" fill="url(#paint2_linear_440_90102)" fill-opacity="0.8"/>
<path d="M11.8825 19.178L34.568 15.827C35.1076 15.7533 35.5449 15.3582 35.6824 14.841L38.0236 6.36823C38.0559 6.25313 38.0727 6.13172 38.0727 6.0068C38.0727 5.26501 37.472 4.66357 36.7295 4.66357C36.672 4.66357 36.6144 4.66708 36.5589 4.6741L14.9129 7.87287C12.5619 8.25044 10.6635 9.98456 10.0474 12.2464L6.92578 23.56C7.55248 21.2715 7.93777 19.8918 11.8825 19.178Z" fill="url(#paint3_linear_440_90102)"/>
<path d="M11.8825 19.178L34.568 15.827C35.1076 15.7533 35.5449 15.3582 35.6824 14.841L38.0236 6.36823C38.0559 6.25313 38.0727 6.13172 38.0727 6.0068C38.0727 5.26501 37.472 4.66357 36.7295 4.66357C36.672 4.66357 36.6144 4.66708 36.5589 4.6741L14.9129 7.87287C12.5619 8.25044 10.6635 9.98456 10.0474 12.2464L6.92578 23.56C7.55248 21.2715 7.93777 19.8918 11.8825 19.178Z" fill="url(#paint4_linear_440_90102)"/>
<path d="M11.8825 19.178L34.568 15.827C35.1076 15.7533 35.5449 15.3582 35.6824 14.841L38.0236 6.36823C38.0559 6.25313 38.0727 6.13172 38.0727 6.0068C38.0727 5.26501 37.472 4.66357 36.7295 4.66357C36.672 4.66357 36.6144 4.66708 36.5589 4.6741L14.9129 7.87287C12.5619 8.25044 10.6635 9.98456 10.0474 12.2464L6.92578 23.56C7.55248 21.2715 7.93777 19.8918 11.8825 19.178Z" fill="url(#paint5_linear_440_90102)"/>
<path d="M11.8825 19.178L34.568 15.827C35.1076 15.7533 35.5449 15.3582 35.6824 14.841L38.0236 6.36823C38.0559 6.25313 38.0727 6.13172 38.0727 6.0068C38.0727 5.26501 37.472 4.66357 36.7295 4.66357C36.672 4.66357 36.6144 4.66708 36.5589 4.6741L14.9129 7.87287C12.5619 8.25044 10.6635 9.98456 10.0474 12.2464L6.92578 23.56C7.55248 21.2715 7.93777 19.8918 11.8825 19.178Z" fill="url(#paint6_linear_440_90102)"/>
<path d="M11.8825 19.178L34.568 15.827C35.1076 15.7533 35.5449 15.3582 35.6824 14.841L38.0236 6.36823C38.0559 6.25313 38.0727 6.13172 38.0727 6.0068C38.0727 5.26501 37.472 4.66357 36.7295 4.66357C36.672 4.66357 36.6144 4.66708 36.5589 4.6741L14.9129 7.87287C12.5619 8.25044 10.6635 9.98456 10.0474 12.2464L6.92578 23.56C7.55248 21.2715 7.93777 19.8918 11.8825 19.178Z" fill="url(#paint7_linear_440_90102)"/>
<path d="M11.8825 19.178L34.568 15.827C35.1076 15.7533 35.5449 15.3582 35.6824 14.841L38.0236 6.36823C38.0559 6.25313 38.0727 6.13172 38.0727 6.0068C38.0727 5.26501 37.472 4.66357 36.7295 4.66357C36.672 4.66357 36.6144 4.66708 36.5589 4.6741L14.9129 7.87287C12.5619 8.25044 10.6635 9.98456 10.0474 12.2464L6.92578 23.56C7.55248 21.2715 7.93777 19.8918 11.8825 19.178Z" fill="url(#paint8_linear_440_90102)"/>
<path d="M11.8825 19.178L34.568 15.827C35.1076 15.7533 35.5449 15.3582 35.6824 14.841L38.0236 6.36823C38.0559 6.25313 38.0727 6.13172 38.0727 6.0068C38.0727 5.26501 37.472 4.66357 36.7295 4.66357C36.6719 4.66357 36.6144 4.66708 36.5589 4.6741L14.9129 7.87287C12.5619 8.25044 10.6635 9.98456 10.0474 12.2464L6.92578 23.56C7.55248 21.2715 7.93777 19.8918 11.8825 19.178Z" fill="url(#paint9_linear_440_90102)" fill-opacity="0.4"/>
<path d="M11.8843 19.1784C8.59925 19.7729 7.78377 20.8312 7.24058 22.4896L4.625 32.0978C4.625 32.0978 5.46083 29.0386 9.50597 28.3845L24.9615 26.1332L25.076 26.1143C25.6423 26.0279 26.0992 25.6104 26.2445 25.0672L28.5434 16.7173L11.885 19.1784H11.8843Z" fill="url(#paint10_linear_440_90102)"/>
<path d="M11.8835 19.1784C8.59837 19.7729 7.78288 20.8312 7.23969 22.4896L4.62412 32.0978C4.62412 32.0978 5.45995 29.0386 9.50508 28.3845L24.9606 26.1332L25.0751 26.1143C25.6415 26.0279 26.0983 25.6104 26.2436 25.0672L28.5426 16.7173L11.8835 19.1784Z" fill="url(#paint11_linear_440_90102)" fill-opacity="0.2"/>
<path fill-rule="evenodd" clip-rule="evenodd" d="M9.50508 28.3845C6.08665 28.9376 4.96399 31.2018 4.69661 31.8917C4.4987 32.4151 4.39062 32.9815 4.39062 33.5731C4.39062 36.0126 6.23354 38.0211 8.60279 38.2835C9.26949 38.3797 10.0239 38.3748 10.8696 38.2506L14.7547 37.7144C15.7316 37.5797 16.5337 36.8744 16.7934 35.9227L19.2308 26.9686L9.50508 28.3845Z" fill="url(#paint12_linear_440_90102)"/>
</g>
<path d="M63.0324 31.7563H59.3831V21.9411C59.3831 20.881 59.4289 19.7103 59.5204 18.4291H59.4289C59.2382 19.4358 59.0666 20.1603 58.9141 20.6026L55.0703 31.7563H52.0502L48.1378 20.717C48.0311 20.4196 47.8595 19.6569 47.623 18.4291H47.5201C47.6192 20.0459 47.6688 21.4644 47.6688 22.6846V31.7563H44.3398V15.3518H49.7508L53.1027 25.0755C53.3696 25.8534 53.5641 26.6352 53.6861 27.4207H53.7547C53.9607 26.5131 54.178 25.7238 54.4068 25.0527L57.7586 15.3518H63.0324V31.7563Z" fill="url(#paint13_linear_440_90102)"/>
<path d="M68.2374 18.1888C67.6273 18.1888 67.1278 18.0096 66.7388 17.6512C66.3499 17.2851 66.1554 16.8389 66.1554 16.3127C66.1554 15.7712 66.3499 15.3289 66.7388 14.9857C67.1278 14.6425 67.6273 14.4709 68.2374 14.4709C68.8552 14.4709 69.3547 14.6425 69.736 14.9857C70.125 15.3289 70.3195 15.7712 70.3195 16.3127C70.3195 16.8618 70.125 17.3118 69.736 17.6626C69.3547 18.0134 68.8552 18.1888 68.2374 18.1888ZM70.022 31.7563H66.4071V20.0421H70.022V31.7563Z" fill="url(#paint14_linear_440_90102)"/>
<path d="M81.9422 31.3331C81.1262 31.8059 79.9479 32.0423 78.4074 32.0423C76.6075 32.0423 75.1509 31.497 74.0374 30.4065C72.9239 29.3159 72.3672 27.9088 72.3672 26.1852C72.3672 24.1947 72.9621 22.6274 74.1518 21.4835C75.3491 20.3319 76.9469 19.7561 78.945 19.7561C80.3254 19.7561 81.3245 19.9391 81.9422 20.3052V23.371C81.1872 22.8067 80.3445 22.5245 79.4141 22.5245C78.3769 22.5245 77.5532 22.8295 76.9431 23.4397C76.3406 24.0422 76.0393 24.8773 76.0393 25.945C76.0393 26.9822 76.3291 27.7982 76.9088 28.3931C77.4884 28.9803 78.2853 29.2739 79.2997 29.2739C80.1996 29.2739 81.0805 28.9917 81.9422 28.4274V31.3331Z" fill="url(#paint15_linear_440_90102)"/>
<path d="M91.9634 23.3024C91.5287 23.066 91.0216 22.9478 90.442 22.9478C89.6564 22.9478 89.0425 23.2376 88.6002 23.8172C88.1578 24.3892 87.9367 25.1709 87.9367 26.1623V31.7563H84.3217V20.0421H87.9367V22.2156H87.9824C88.5544 20.6293 89.584 19.8361 91.0712 19.8361C91.4525 19.8361 91.7499 19.8819 91.9634 19.9734V23.3024Z" fill="url(#paint16_linear_440_90102)"/>
<path d="M99.1476 32.0423C97.1952 32.0423 95.6585 31.497 94.5374 30.4065C93.4239 29.3082 92.8672 27.8211 92.8672 25.945C92.8672 24.0078 93.4468 22.494 94.606 21.4034C95.7653 20.3052 97.3325 19.7561 99.3078 19.7561C101.253 19.7561 102.778 20.3052 103.884 21.4034C104.989 22.494 105.542 23.9392 105.542 25.739C105.542 27.6838 104.97 29.2205 103.826 30.3493C102.69 31.478 101.13 32.0423 99.1476 32.0423ZM99.2391 22.5245C98.385 22.5245 97.7214 22.8181 97.2486 23.4053C96.7758 23.9926 96.5393 24.8239 96.5393 25.8992C96.5393 28.149 97.4469 29.2739 99.262 29.2739C100.993 29.2739 101.859 28.1185 101.859 25.8077C101.859 23.6189 100.986 22.5245 99.2391 22.5245Z" fill="url(#paint17_linear_440_90102)"/>
<path d="M107.121 31.4475V28.5189C107.716 28.8773 108.307 29.1443 108.894 29.3197C109.489 29.4951 110.05 29.5828 110.576 29.5828C111.217 29.5828 111.72 29.4951 112.086 29.3197C112.46 29.1443 112.646 28.8773 112.646 28.5189C112.646 28.2901 112.563 28.0994 112.395 27.9469C112.227 27.7944 112.01 27.6609 111.743 27.5465C111.483 27.4321 111.197 27.3292 110.885 27.2377C110.572 27.1461 110.271 27.0432 109.981 26.9288C109.516 26.7534 109.104 26.5665 108.746 26.3682C108.395 26.1623 108.097 25.9259 107.853 25.659C107.617 25.392 107.434 25.0832 107.304 24.7324C107.182 24.3815 107.121 23.9659 107.121 23.4854C107.121 22.8295 107.262 22.2652 107.544 21.7923C107.834 21.3195 108.215 20.9344 108.688 20.6369C109.169 20.3319 109.714 20.1107 110.324 19.9734C110.942 19.8285 111.583 19.7561 112.246 19.7561C112.765 19.7561 113.291 19.798 113.825 19.8819C114.359 19.9582 114.885 20.0726 115.403 20.2251V23.0164C114.946 22.7495 114.454 22.5512 113.928 22.4215C113.409 22.2842 112.898 22.2156 112.395 22.2156C112.158 22.2156 111.933 22.2385 111.72 22.2842C111.514 22.3224 111.331 22.3834 111.171 22.4673C111.011 22.5436 110.885 22.6465 110.793 22.7762C110.702 22.8982 110.656 23.0393 110.656 23.1994C110.656 23.413 110.725 23.596 110.862 23.7485C110.999 23.9011 111.178 24.0345 111.4 24.1489C111.621 24.2557 111.865 24.3548 112.132 24.4464C112.406 24.5303 112.677 24.618 112.944 24.7095C113.424 24.8773 113.859 25.0603 114.248 25.2586C114.637 25.4569 114.969 25.6895 115.243 25.9564C115.525 26.2233 115.739 26.536 115.884 26.8945C116.036 27.2529 116.113 27.68 116.113 28.1757C116.113 28.8697 115.96 29.4646 115.655 29.9603C115.358 30.4484 114.957 30.8488 114.454 31.1615C113.958 31.4665 113.382 31.6877 112.727 31.825C112.078 31.9699 111.403 32.0423 110.702 32.0423C109.413 32.0423 108.219 31.8441 107.121 31.4475Z" fill="url(#paint18_linear_440_90102)"/>
<path d="M123.789 32.0423C121.836 32.0423 120.3 31.497 119.179 30.4065C118.065 29.3082 117.508 27.8211 117.508 25.945C117.508 24.0078 118.088 22.494 119.247 21.4034C120.406 20.3052 121.974 19.7561 123.949 19.7561C125.894 19.7561 127.419 20.3052 128.525 21.4034C129.631 22.494 130.184 23.9392 130.184 25.739C130.184 27.6838 129.612 29.2205 128.468 30.3493C127.331 31.478 125.772 32.0423 123.789 32.0423ZM123.88 22.5245C123.026 22.5245 122.363 22.8181 121.89 23.4053C121.417 23.9926 121.181 24.8239 121.181 25.8992C121.181 28.149 122.088 29.2739 123.903 29.2739C125.634 29.2739 126.5 28.1185 126.5 25.8077C126.5 23.6189 125.627 22.5245 123.88 22.5245Z" fill="url(#paint19_linear_440_90102)"/>
<path d="M139.804 17.1821C139.339 16.9991 138.893 16.9076 138.466 16.9076C137.307 16.9076 136.727 17.5368 136.727 18.7951V20.0421H139.404V22.7075H136.727V31.7563H133.124V22.7075H131.156V20.0421H133.124V18.5892C133.124 17.2546 133.558 16.1792 134.428 15.3632C135.297 14.5472 136.479 14.1392 137.974 14.1392C138.706 14.1392 139.316 14.2154 139.804 14.368V17.1821Z" fill="url(#paint20_linear_440_90102)"/>
<path d="M148.693 31.6191C148.159 31.9013 147.355 32.0423 146.279 32.0423C143.732 32.0423 142.458 30.7191 142.458 28.0728V22.7075H140.559V20.0421H142.458V17.5139L146.062 16.4843V20.0421H148.693V22.7075H146.062V27.4436C146.062 28.6638 146.546 29.2739 147.515 29.2739C147.896 29.2739 148.289 29.1633 148.693 28.9422V31.6191Z" fill="url(#paint21_linear_440_90102)"/>
<path d="M167.054 18.3604H161.265V22.3872H166.585V25.3844H161.265V31.7563H157.57V15.3518H167.054V18.3604Z" fill="url(#paint22_linear_440_90102)"/>
<path d="M178.448 31.7563H175.027V30.0747H174.982C174.196 31.3865 173.033 32.0423 171.492 32.0423C170.356 32.0423 169.46 31.722 168.804 31.0814C168.156 30.4332 167.832 29.5714 167.832 28.496C167.832 26.2233 169.178 24.9116 171.87 24.5608L175.05 24.1375C175.05 22.8562 174.356 22.2156 172.968 22.2156C171.573 22.2156 170.246 22.6313 168.987 23.4625V20.7399C169.491 20.4806 170.177 20.2518 171.046 20.0535C171.923 19.8552 172.72 19.7561 173.437 19.7561C176.778 19.7561 178.448 21.4225 178.448 24.7552V31.7563ZM175.05 26.9974V26.2081L172.922 26.4826C171.748 26.6352 171.161 27.1652 171.161 28.0728C171.161 28.4846 171.302 28.824 171.584 29.0909C171.874 29.3502 172.263 29.4798 172.751 29.4798C173.43 29.4798 173.983 29.2472 174.41 28.782C174.837 28.3092 175.05 27.7143 175.05 26.9974Z" fill="url(#paint23_linear_440_90102)"/>
<path d="M184.968 30.395H184.923V31.7563H181.308V14.4137H184.923V21.8038H184.968C185.861 20.4386 187.131 19.7561 188.778 19.7561C190.288 19.7561 191.451 20.2747 192.267 21.3119C193.083 22.3491 193.491 23.7676 193.491 25.5675C193.491 27.5198 193.014 29.0871 192.061 30.2692C191.108 31.4513 189.834 32.0423 188.24 32.0423C186.799 32.0423 185.708 31.4932 184.968 30.395ZM184.866 25.4531V26.6542C184.866 27.4092 185.083 28.0346 185.518 28.5303C185.952 29.0261 186.509 29.2739 187.188 29.2739C188.011 29.2739 188.648 28.9574 189.098 28.3244C189.556 27.6838 189.785 26.7801 189.785 25.6132C189.785 24.6446 189.575 23.8896 189.155 23.3481C188.744 22.799 188.153 22.5245 187.382 22.5245C186.658 22.5245 186.055 22.7952 185.575 23.3367C185.102 23.8782 184.866 24.5836 184.866 25.4531Z" fill="url(#paint24_linear_440_90102)"/>
<path d="M203.478 23.3024C203.043 23.066 202.536 22.9478 201.956 22.9478C201.171 22.9478 200.557 23.2376 200.115 23.8172C199.672 24.3892 199.451 25.1709 199.451 26.1623V31.7563H195.836V20.0421H199.451V22.2156H199.497C200.069 20.6293 201.098 19.8361 202.586 19.8361C202.967 19.8361 203.264 19.8819 203.478 19.9734V23.3024Z" fill="url(#paint25_linear_440_90102)"/>
<path d="M207.093 18.1888C206.483 18.1888 205.983 18.0096 205.594 17.6512C205.205 17.2851 205.011 16.8389 205.011 16.3127C205.011 15.7712 205.205 15.3289 205.594 14.9857C205.983 14.6425 206.483 14.4709 207.093 14.4709C207.711 14.4709 208.21 14.6425 208.592 14.9857C208.98 15.3289 209.175 15.7712 209.175 16.3127C209.175 16.8618 208.98 17.3118 208.592 17.6626C208.21 18.0134 207.711 18.1888 207.093 18.1888ZM208.878 31.7563H205.263V20.0421H208.878V31.7563Z" fill="url(#paint26_linear_440_90102)"/>
<path d="M220.798 31.3331C219.982 31.8059 218.803 32.0423 217.263 32.0423C215.463 32.0423 214.006 31.497 212.893 30.4065C211.779 29.3159 211.223 27.9088 211.223 26.1852C211.223 24.1947 211.818 22.6274 213.007 21.4835C214.205 20.3319 215.802 19.7561 217.801 19.7561C219.181 19.7561 220.18 19.9391 220.798 20.3052V23.371C220.043 22.8067 219.2 22.5245 218.27 22.5245C217.232 22.5245 216.409 22.8295 215.799 23.4397C215.196 24.0422 214.895 24.8773 214.895 25.945C214.895 26.9822 215.185 27.7982 215.764 28.3931C216.344 28.9803 217.141 29.2739 218.155 29.2739C219.055 29.2739 219.936 28.9917 220.798 28.4274V31.3331Z" fill="url(#paint27_linear_440_90102)"/>
<defs>
<linearGradient id="paint0_linear_440_90102" x1="11.9286" y1="38.3509" x2="11.9286" y2="26.1025" gradientUnits="userSpaceOnUse">
<stop offset="0.056" stop-color="#2AAC94"/>
<stop offset="0.155" stop-color="#239C87"/>
<stop offset="0.372" stop-color="#177E71"/>
<stop offset="0.588" stop-color="#0E6961"/>
<stop offset="0.799" stop-color="#095D57"/>
<stop offset="1" stop-color="#085954"/>
</linearGradient>
<linearGradient id="paint1_linear_440_90102" x1="27.4068" y1="29.4634" x2="15.5793" y2="16.5993" gradientUnits="userSpaceOnUse">
<stop offset="0.0417478" stop-color="#ABE88E"/>
<stop offset="0.548926" stop-color="#2AAA92"/>
<stop offset="0.906" stop-color="#117865"/>
</linearGradient>
<linearGradient id="paint2_linear_440_90102" x1="-1.65844" y1="28.838" x2="9.59714" y2="24.9996" gradientUnits="userSpaceOnUse">
<stop stop-color="#6AD6F9"/>
<stop offset="1" stop-color="#6AD6F9" stop-opacity="0"/>
</linearGradient>
<linearGradient id="paint3_linear_440_90102" x1="6.92578" y1="14.1118" x2="36.886" y2="14.1118" gradientUnits="userSpaceOnUse">
<stop offset="0.043" stop-color="#25FFD4"/>
<stop offset="0.874" stop-color="#55DDB9"/>
</linearGradient>
<linearGradient id="paint4_linear_440_90102" x1="18.4577" y1="5.96751" x2="24.8825" y2="19.745" gradientUnits="userSpaceOnUse">
<stop stop-color="#F4E084" stop-opacity="0.6"/>
<stop offset="0.534" stop-color="#F4E084" stop-opacity="0"/>
</linearGradient>
<linearGradient id="paint5_linear_440_90102" x1="29.1479" y1="-2.60847" x2="37.8087" y2="10.6949" gradientUnits="userSpaceOnUse">
<stop stop-color="#ABF5E2"/>
<stop offset="1" stop-color="#4EE6BD"/>
</linearGradient>
<linearGradient id="paint6_linear_440_90102" x1="22.4992" y1="4.66357" x2="22.4992" y2="23.56" gradientUnits="userSpaceOnUse">
<stop stop-color="#1F937E"/>
<stop offset="1" stop-color="#9EE09F"/>
</linearGradient>
<linearGradient id="paint7_linear_440_90102" x1="22.4992" y1="4.66357" x2="22.4992" y2="23.56" gradientUnits="userSpaceOnUse">
<stop stop-color="#1F937E"/>
<stop offset="1" stop-color="#C0ECC7"/>
</linearGradient>
<linearGradient id="paint8_linear_440_90102" x1="6.92578" y1="9.9242" x2="33.914" y2="22.4563" gradientUnits="userSpaceOnUse">
<stop stop-color="#6AD6F9"/>
<stop offset="0.229501" stop-color="#60E9D0"/>
<stop offset="0.650711" stop-color="#6DE9BB"/>
<stop offset="0.99354" stop-color="#ABE88E"/>
</linearGradient>
<linearGradient id="paint9_linear_440_90102" x1="9.42249" y1="12.2693" x2="24.0975" y2="15.515" gradientUnits="userSpaceOnUse">
<stop stop-color="white" stop-opacity="0"/>
<stop offset="0.458511" stop-color="white"/>
<stop offset="1" stop-color="white" stop-opacity="0"/>
</linearGradient>
<linearGradient id="paint10_linear_440_90102" x1="14.2903" y1="24.8409" x2="14.6371" y2="14.5497" gradientUnits="userSpaceOnUse">
<stop offset="0.204642" stop-color="#063D3B" stop-opacity="0"/>
<stop offset="0.58553" stop-color="#063D3B" stop-opacity="0.236587"/>
<stop offset="0.872285" stop-color="#063D3B" stop-opacity="0.75"/>
</linearGradient>
<linearGradient id="paint11_linear_440_90102" x1="3.14122" y1="26.7038" x2="16.0176" y2="28.4423" gradientUnits="userSpaceOnUse">
<stop stop-color="white" stop-opacity="0"/>
<stop offset="0.458511" stop-color="white"/>
<stop offset="1" stop-color="white" stop-opacity="0"/>
</linearGradient>
<linearGradient id="paint12_linear_440_90102" x1="12.4458" y1="34.9564" x2="9.99955" y2="22.9924" gradientUnits="userSpaceOnUse">
<stop offset="0.064" stop-color="#063D3B" stop-opacity="0"/>
<stop offset="0.17" stop-color="#063D3B" stop-opacity="0.135"/>
<stop offset="0.562" stop-color="#063D3B" stop-opacity="0.599"/>
<stop offset="0.85" stop-color="#063D3B" stop-opacity="0.9"/>
<stop offset="1" stop-color="#063D3B"/>
</linearGradient>
<linearGradient id="paint13_linear_440_90102" x1="42.4637" y1="14.3674" x2="96.9656" y2="100.211" gradientUnits="userSpaceOnUse">
<stop stop-color="#6AD6F9"/>
<stop offset="0.229501" stop-color="#60E9D0"/>
<stop offset="0.650711" stop-color="#6DE9BB"/>
<stop offset="0.99354" stop-color="#ABE88E"/>
</linearGradient>
<linearGradient id="paint14_linear_440_90102" x1="42.4637" y1="14.3674" x2="96.9656" y2="100.211" gradientUnits="userSpaceOnUse">
<stop stop-color="#6AD6F9"/>
<stop offset="0.229501" stop-color="#60E9D0"/>
<stop offset="0.650711" stop-color="#6DE9BB"/>
<stop offset="0.99354" stop-color="#ABE88E"/>
</linearGradient>
<linearGradient id="paint15_linear_440_90102" x1="42.4637" y1="14.3674" x2="96.9656" y2="100.211" gradientUnits="userSpaceOnUse">
<stop stop-color="#6AD6F9"/>
<stop offset="0.229501" stop-color="#60E9D0"/>
<stop offset="0.650711" stop-color="#6DE9BB"/>
<stop offset="0.99354" stop-color="#ABE88E"/>
</linearGradient>
<linearGradient id="paint16_linear_440_90102" x1="42.4637" y1="14.3674" x2="96.9656" y2="100.211" gradientUnits="userSpaceOnUse">
<stop stop-color="#6AD6F9"/>
<stop offset="0.229501" stop-color="#60E9D0"/>
<stop offset="0.650711" stop-color="#6DE9BB"/>
<stop offset="0.99354" stop-color="#ABE88E"/>
</linearGradient>
<linearGradient id="paint17_linear_440_90102" x1="42.4637" y1="14.3674" x2="96.9656" y2="100.211" gradientUnits="userSpaceOnUse">
<stop stop-color="#6AD6F9"/>
<stop offset="0.229501" stop-color="#60E9D0"/>
<stop offset="0.650711" stop-color="#6DE9BB"/>
<stop offset="0.99354" stop-color="#ABE88E"/>
</linearGradient>
<linearGradient id="paint18_linear_440_90102" x1="42.4637" y1="14.3674" x2="96.9656" y2="100.211" gradientUnits="userSpaceOnUse">
<stop stop-color="#6AD6F9"/>
<stop offset="0.229501" stop-color="#60E9D0"/>
<stop offset="0.650711" stop-color="#6DE9BB"/>
<stop offset="0.99354" stop-color="#ABE88E"/>
</linearGradient>
<linearGradient id="paint19_linear_440_90102" x1="42.4637" y1="14.3674" x2="96.9656" y2="100.211" gradientUnits="userSpaceOnUse">
<stop stop-color="#6AD6F9"/>
<stop offset="0.229501" stop-color="#60E9D0"/>
<stop offset="0.650711" stop-color="#6DE9BB"/>
<stop offset="0.99354" stop-color="#ABE88E"/>
</linearGradient>
<linearGradient id="paint20_linear_440_90102" x1="42.4637" y1="14.3674" x2="96.9656" y2="100.211" gradientUnits="userSpaceOnUse">
<stop stop-color="#6AD6F9"/>
<stop offset="0.229501" stop-color="#60E9D0"/>
<stop offset="0.650711" stop-color="#6DE9BB"/>
<stop offset="0.99354" stop-color="#ABE88E"/>
</linearGradient>
<linearGradient id="paint21_linear_440_90102" x1="42.4637" y1="14.3674" x2="96.9656" y2="100.211" gradientUnits="userSpaceOnUse">
<stop stop-color="#6AD6F9"/>
<stop offset="0.229501" stop-color="#60E9D0"/>
<stop offset="0.650711" stop-color="#6DE9BB"/>
<stop offset="0.99354" stop-color="#ABE88E"/>
</linearGradient>
<linearGradient id="paint22_linear_440_90102" x1="42.4637" y1="14.3674" x2="96.9656" y2="100.211" gradientUnits="userSpaceOnUse">
<stop stop-color="#6AD6F9"/>
<stop offset="0.229501" stop-color="#60E9D0"/>
<stop offset="0.650711" stop-color="#6DE9BB"/>
<stop offset="0.99354" stop-color="#ABE88E"/>
</linearGradient>
<linearGradient id="paint23_linear_440_90102" x1="42.4637" y1="14.3674" x2="96.9656" y2="100.211" gradientUnits="userSpaceOnUse">
<stop stop-color="#6AD6F9"/>
<stop offset="0.229501" stop-color="#60E9D0"/>
<stop offset="0.650711" stop-color="#6DE9BB"/>
<stop offset="0.99354" stop-color="#ABE88E"/>
</linearGradient>
<linearGradient id="paint24_linear_440_90102" x1="42.4637" y1="14.3674" x2="96.9656" y2="100.211" gradientUnits="userSpaceOnUse">
<stop stop-color="#6AD6F9"/>
<stop offset="0.229501" stop-color="#60E9D0"/>
<stop offset="0.650711" stop-color="#6DE9BB"/>
<stop offset="0.99354" stop-color="#ABE88E"/>
</linearGradient>
<linearGradient id="paint25_linear_440_90102" x1="42.4637" y1="14.3674" x2="96.9656" y2="100.211" gradientUnits="userSpaceOnUse">
<stop stop-color="#6AD6F9"/>
<stop offset="0.229501" stop-color="#60E9D0"/>
<stop offset="0.650711" stop-color="#6DE9BB"/>
<stop offset="0.99354" stop-color="#ABE88E"/>
</linearGradient>
<linearGradient id="paint26_linear_440_90102" x1="42.4637" y1="14.3674" x2="96.9656" y2="100.211" gradientUnits="userSpaceOnUse">
<stop stop-color="#6AD6F9"/>
<stop offset="0.229501" stop-color="#60E9D0"/>
<stop offset="0.650711" stop-color="#6DE9BB"/>
<stop offset="0.99354" stop-color="#ABE88E"/>
</linearGradient>
<linearGradient id="paint27_linear_440_90102" x1="42.4637" y1="14.3674" x2="96.9656" y2="100.211" gradientUnits="userSpaceOnUse">
<stop stop-color="#6AD6F9"/>
<stop offset="0.229501" stop-color="#60E9D0"/>
<stop offset="0.650711" stop-color="#6DE9BB"/>
<stop offset="0.99354" stop-color="#ABE88E"/>
</linearGradient>
<clipPath id="clip0_440_90102">
<rect width="33.6786" height="33.6786" fill="white" transform="translate(4.39453 4.66748)"/>
</clipPath>
</defs>
</svg>
