<svg width="196" height="34" viewBox="0 0 196 34" fill="none" xmlns="http://www.w3.org/2000/svg">
<path d="M76.0605 29.1165V15.6071H81.1266C82.1644 15.6071 83.0352 15.8006 83.7388 16.1875C84.4468 16.5745 84.9811 17.1066 85.3417 17.7839C85.7067 18.4567 85.8892 19.2219 85.8892 20.0794C85.8892 20.9458 85.7067 21.7153 85.3417 22.3882C84.9767 23.061 84.438 23.5909 83.7256 23.9779C83.0132 24.3605 82.1358 24.5518 81.0936 24.5518H77.736V22.5399H80.7638C81.3707 22.5399 81.8676 22.4344 82.2546 22.2233C82.6416 22.0122 82.9274 21.7219 83.1121 21.3525C83.3012 20.9831 83.3958 20.5588 83.3958 20.0794C83.3958 19.6001 83.3012 19.1779 83.1121 18.8129C82.9274 18.4479 82.6394 18.1643 82.248 17.962C81.861 17.7553 81.3619 17.652 80.7506 17.652H78.5078V29.1165H76.0605Z" fill="black" fill-opacity="0.7"/>
<path d="M89.3936 32.9161C89.0681 32.9161 88.7669 32.8897 88.4898 32.8369C88.2172 32.7885 87.9995 32.7314 87.8368 32.6654L88.3909 30.8052C88.7383 30.9064 89.0483 30.9547 89.321 30.9503C89.5936 30.9459 89.8333 30.8602 90.04 30.6931C90.2511 30.5304 90.4292 30.2577 90.5743 29.8751L90.7788 29.3276L87.1046 18.9844H89.6376L91.9728 26.6363H92.0783L94.42 18.9844H96.9597L92.9029 30.3435C92.7138 30.88 92.4631 31.3395 92.1509 31.7221C91.8386 32.1091 91.456 32.4037 91.0031 32.606C90.5545 32.8127 90.018 32.9161 89.3936 32.9161Z" fill="black" fill-opacity="0.7"/>
<path d="M103.672 18.9844V20.8314H97.8469V18.9844H103.672ZM99.2849 16.5569H101.673V26.069C101.673 26.39 101.721 26.6363 101.818 26.8078C101.919 26.9749 102.051 27.0892 102.214 27.1508C102.376 27.2124 102.557 27.2431 102.755 27.2431C102.904 27.2431 103.04 27.2322 103.164 27.2102C103.291 27.1882 103.388 27.1684 103.454 27.1508L103.856 29.0176C103.729 29.0616 103.546 29.1099 103.309 29.1627C103.076 29.2155 102.79 29.2463 102.451 29.2551C101.853 29.2726 101.314 29.1825 100.835 28.9846C100.356 28.7823 99.9753 28.4701 99.6939 28.0479C99.4168 27.6257 99.2805 27.098 99.2849 26.4648V16.5569Z" fill="black" fill-opacity="0.7"/>
<path d="M108.274 23.1798V29.1165H105.886V15.6071H108.221V20.7061H108.34C108.578 20.1344 108.945 19.6836 109.442 19.3538C109.943 19.0196 110.581 18.8525 111.355 18.8525C112.058 18.8525 112.672 18.9998 113.195 19.2945C113.718 19.5891 114.123 20.0201 114.409 20.5874C114.699 21.1547 114.844 21.8473 114.844 22.6652V29.1165H112.456V23.0346C112.456 22.353 112.28 21.8231 111.929 21.4449C111.581 21.0623 111.093 20.871 110.464 20.871C110.042 20.871 109.664 20.9634 109.33 21.1481C109 21.3284 108.74 21.59 108.551 21.933C108.367 22.276 108.274 22.6916 108.274 23.1798Z" fill="black" fill-opacity="0.7"/>
<path d="M121.698 29.3144C120.708 29.3144 119.851 29.0967 119.125 28.6614C118.4 28.226 117.837 27.6169 117.437 26.8342C117.041 26.0514 116.843 25.1367 116.843 24.0901C116.843 23.0434 117.041 22.1265 117.437 21.3394C117.837 20.5522 118.4 19.9409 119.125 19.5055C119.851 19.0702 120.708 18.8525 121.698 18.8525C122.687 18.8525 123.545 19.0702 124.27 19.5055C124.996 19.9409 125.557 20.5522 125.953 21.3394C126.353 22.1265 126.553 23.0434 126.553 24.0901C126.553 25.1367 126.353 26.0514 125.953 26.8342C125.557 27.6169 124.996 28.226 124.27 28.6614C123.545 29.0967 122.687 29.3144 121.698 29.3144ZM121.711 27.4015C122.248 27.4015 122.696 27.2541 123.057 26.9595C123.417 26.6605 123.686 26.2603 123.861 25.759C124.042 25.2576 124.132 24.6991 124.132 24.0835C124.132 23.4634 124.042 22.9027 123.861 22.4014C123.686 21.8956 123.417 21.4933 123.057 21.1942C122.696 20.8952 122.248 20.7457 121.711 20.7457C121.161 20.7457 120.704 20.8952 120.339 21.1942C119.978 21.4933 119.708 21.8956 119.528 22.4014C119.352 22.9027 119.264 23.4634 119.264 24.0835C119.264 24.6991 119.352 25.2576 119.528 25.759C119.708 26.2603 119.978 26.6605 120.339 26.9595C120.704 27.2541 121.161 27.4015 121.711 27.4015Z" fill="black" fill-opacity="0.7"/>
<path d="M130.967 23.1798V29.1165H128.58V18.9844H130.862V20.7061H130.981C131.214 20.1388 131.585 19.688 132.095 19.3538C132.61 19.0196 133.245 18.8525 134.002 18.8525C134.701 18.8525 135.31 19.002 135.829 19.3011C136.352 19.6001 136.757 20.0333 137.043 20.6006C137.333 21.1678 137.476 21.8561 137.472 22.6652V29.1165H135.084V23.0346C135.084 22.3574 134.908 21.8275 134.556 21.4449C134.209 21.0623 133.727 20.871 133.111 20.871C132.694 20.871 132.322 20.9634 131.997 21.1481C131.676 21.3284 131.423 21.59 131.238 21.933C131.058 22.276 130.967 22.6916 130.967 23.1798Z" fill="black" fill-opacity="0.7"/>
<path d="M151.954 19.3208C151.892 18.7448 151.633 18.2962 151.176 17.9752C150.723 17.6542 150.133 17.4936 149.408 17.4936C148.898 17.4936 148.46 17.5706 148.095 17.7245C147.73 17.8784 147.451 18.0873 147.257 18.3512C147.064 18.615 146.965 18.9163 146.961 19.2549C146.961 19.5363 147.024 19.7804 147.152 19.9871C147.284 20.1938 147.462 20.3697 147.686 20.5148C147.91 20.6555 148.159 20.7743 148.432 20.871C148.704 20.9678 148.979 21.0491 149.256 21.1151L150.523 21.4317C151.033 21.5504 151.523 21.7109 151.994 21.9132C152.469 22.1155 152.893 22.3706 153.267 22.6784C153.645 22.9863 153.944 23.3579 154.164 23.7932C154.384 24.2286 154.494 24.7387 154.494 25.3236C154.494 26.1152 154.291 26.8122 153.887 27.4147C153.482 28.0127 152.897 28.4811 152.132 28.8197C151.371 29.1539 150.45 29.321 149.368 29.321C148.317 29.321 147.405 29.1583 146.631 28.8329C145.861 28.5075 145.259 28.0325 144.823 27.4081C144.392 26.7836 144.159 26.0228 144.124 25.1257H146.532C146.567 25.5962 146.712 25.9876 146.967 26.2999C147.222 26.6121 147.554 26.8452 147.963 26.9991C148.377 27.153 148.838 27.23 149.348 27.23C149.881 27.23 150.347 27.1508 150.747 26.9925C151.151 26.8298 151.468 26.6055 151.697 26.3196C151.925 26.0294 152.042 25.6908 152.046 25.3038C152.042 24.952 151.939 24.6617 151.736 24.4331C151.534 24.2 151.25 24.0065 150.885 23.8526C150.525 23.6943 150.103 23.5535 149.619 23.4304L148.082 23.0346C146.969 22.7488 146.09 22.3156 145.443 21.7351C144.801 21.1503 144.48 20.3741 144.48 19.4066C144.48 18.6106 144.696 17.9136 145.127 17.3155C145.562 16.7175 146.154 16.2535 146.901 15.9237C147.649 15.5895 148.495 15.4224 149.441 15.4224C150.399 15.4224 151.239 15.5895 151.961 15.9237C152.686 16.2535 153.256 16.7131 153.669 17.3023C154.082 17.8872 154.296 18.5601 154.309 19.3208H151.954Z" fill="black" fill-opacity="0.7"/>
<path d="M156.57 32.9161V18.9844H158.918V20.6599H159.057C159.18 20.4137 159.354 20.152 159.578 19.8749C159.802 19.5935 160.106 19.3538 160.488 19.1559C160.871 18.9536 161.359 18.8525 161.953 18.8525C162.735 18.8525 163.441 19.0526 164.07 19.4528C164.703 19.8486 165.205 20.4356 165.574 21.214C165.948 21.988 166.135 22.9379 166.135 24.0637C166.135 25.1763 165.952 26.1218 165.587 26.9001C165.222 27.6785 164.725 28.2722 164.096 28.6812C163.467 29.0901 162.755 29.2946 161.959 29.2946C161.379 29.2946 160.897 29.1979 160.514 29.0044C160.132 28.8109 159.824 28.5778 159.591 28.3052C159.362 28.0281 159.184 27.7665 159.057 27.5202H158.958V32.9161H156.57ZM158.912 24.0505C158.912 24.7057 159.004 25.2796 159.189 25.7721C159.378 26.2647 159.648 26.6495 160 26.9265C160.356 27.1992 160.787 27.3355 161.293 27.3355C161.821 27.3355 162.263 27.1948 162.619 26.9133C162.975 26.6275 163.243 26.2383 163.424 25.7458C163.608 25.2488 163.701 24.6837 163.701 24.0505C163.701 23.4216 163.61 22.8631 163.43 22.375C163.25 21.8869 162.982 21.5043 162.625 21.2272C162.269 20.9502 161.825 20.8116 161.293 20.8116C160.783 20.8116 160.35 20.9458 159.993 21.214C159.637 21.4823 159.367 21.8583 159.182 22.342C159.002 22.8257 158.912 23.3952 158.912 24.0505Z" fill="black" fill-opacity="0.7"/>
<path d="M171.095 29.321C170.453 29.321 169.875 29.2067 169.36 28.978C168.85 28.7449 168.446 28.4019 168.147 27.949C167.852 27.496 167.705 26.9375 167.705 26.2735C167.705 25.7018 167.81 25.229 168.021 24.8552C168.232 24.4814 168.52 24.1824 168.885 23.9581C169.25 23.7339 169.662 23.5645 170.119 23.4502C170.581 23.3315 171.058 23.2457 171.55 23.1929C172.144 23.1314 172.626 23.0764 172.995 23.028C173.364 22.9753 173.633 22.8961 173.8 22.7906C173.971 22.6806 174.057 22.5113 174.057 22.2826V22.2431C174.057 21.7461 173.91 21.3613 173.615 21.0887C173.32 20.816 172.896 20.6797 172.342 20.6797C171.757 20.6797 171.293 20.8072 170.95 21.0623C170.611 21.3174 170.383 21.6186 170.264 21.966L168.034 21.6494C168.21 21.0337 168.501 20.5192 168.905 20.1058C169.31 19.688 169.804 19.3758 170.389 19.1691C170.974 18.958 171.621 18.8525 172.329 18.8525C172.817 18.8525 173.303 18.9097 173.786 19.024C174.27 19.1383 174.712 19.3274 175.112 19.5913C175.513 19.8508 175.834 20.2048 176.075 20.6533C176.322 21.1019 176.445 21.6626 176.445 22.3354V29.1165H174.149V27.7247H174.07C173.925 28.0061 173.721 28.27 173.457 28.5163C173.197 28.7581 172.87 28.9538 172.474 29.1033C172.082 29.2485 171.623 29.321 171.095 29.321ZM171.715 27.5664C172.195 27.5664 172.61 27.4718 172.962 27.2827C173.314 27.0892 173.584 26.8342 173.773 26.5175C173.967 26.2009 174.064 25.8557 174.064 25.4819V24.2879C173.989 24.3495 173.861 24.4067 173.681 24.4595C173.505 24.5122 173.307 24.5584 173.087 24.598C172.867 24.6376 172.65 24.6727 172.434 24.7035C172.219 24.7343 172.032 24.7607 171.874 24.7827C171.517 24.8311 171.198 24.9102 170.917 25.0202C170.636 25.1301 170.414 25.284 170.251 25.4819C170.088 25.6754 170.007 25.9261 170.007 26.2339C170.007 26.6737 170.167 27.0057 170.488 27.23C170.809 27.4542 171.218 27.5664 171.715 27.5664Z" fill="black" fill-opacity="0.7"/>
<path d="M178.846 29.1165V18.9844H181.161V20.6731H181.267C181.452 20.0882 181.768 19.6375 182.217 19.3208C182.67 18.9998 183.186 18.8393 183.767 18.8393C183.899 18.8393 184.046 18.8459 184.209 18.8591C184.376 18.8679 184.514 18.8833 184.624 18.9053V21.1019C184.523 21.0667 184.363 21.0359 184.143 21.0095C183.927 20.9787 183.718 20.9634 183.516 20.9634C183.081 20.9634 182.689 21.0579 182.342 21.247C181.999 21.4317 181.729 21.689 181.531 22.0188C181.333 22.3486 181.234 22.729 181.234 23.16V29.1165H178.846Z" fill="black" fill-opacity="0.7"/>
<path d="M188.388 25.9371L188.381 23.0544H188.764L192.405 18.9844H195.195L190.716 23.9713H190.221L188.388 25.9371ZM186.211 29.1165V15.6071H188.599V29.1165H186.211ZM192.57 29.1165L189.272 24.5056L190.881 22.8235L195.426 29.1165H192.57Z" fill="black" fill-opacity="0.7"/>
<g clip-path="url(#clip0_440_90120)">
<path d="M54.9727 2.80176C56.1883 2.80176 57.0805 4.66329 58.0117 6.44824C58.9118 8.17352 58.924 8.26716 58.9238 8.27148C58.9687 8.25395 65.7889 5.59415 66.5205 7.05566C66.8245 7.66371 66.7408 8.29086 65.9131 9.4873C65.0866 10.6815 62.2754 14.0354 62.2666 14.0459C62.2775 14.0732 62.8819 15.5786 63.7852 17.084C64.6968 18.6036 65.305 19.8188 64.3936 20.7305C63.4819 21.6421 62.8735 21.3384 59.835 20.4268C59.4035 20.2973 58.8805 20.13 58.2949 19.9375L58.0127 17.3877L61.6592 18.2998L59.5322 13.7412L63.1787 9.4873L57.709 10.7021L55.2783 6.44824L53.876 11.7773L48.8965 13.4375L52.8467 15.2607L50.1816 17.0361C48.9275 16.5518 47.9068 16.1345 47.376 15.8691C45.5738 14.9681 45.4298 14.1688 45.4268 14.1504C45.3283 13.9248 45.3056 13.5467 45.3877 13.3115C45.3904 13.2986 45.5575 12.5239 46.1602 12.2227C46.7678 11.9186 52.2383 10.0947 52.2383 10.0947C52.2422 10.0671 52.5441 7.95582 52.8457 6.14453C53.1497 4.3214 53.7572 2.80204 54.9727 2.80176Z" fill="#E77315"/>
<path d="M14.7817 15.0865C12.5641 15.6445 10.826 17.7586 10.9815 19.704C11.0594 20.8322 11.4874 21.5324 13.2642 23.4651C15.041 25.3978 15.2229 25.6439 15.2229 26.2146C15.2229 27.1746 14.3537 27.9267 13.2515 27.9267C12.4734 27.9267 11.8895 27.5247 11.4487 26.6814L11.1114 26.0204L9.78856 26.7206C9.07519 27.1094 8.47852 27.4859 8.47852 27.5502C8.47852 27.9007 9.30857 29.2367 9.81409 29.7035C10.5147 30.3521 11.4095 30.6503 12.6416 30.6503C15.5862 30.6503 18.0759 28.3547 18.1151 25.5792C18.1411 24.3211 17.7131 23.569 15.9623 21.7138C13.6403 19.276 13.4069 18.8088 14.1982 18.1474C15.093 17.3953 16.079 17.6027 16.883 18.7053L17.2459 19.2113L18.4392 18.342C19.0879 17.8753 19.6198 17.4213 19.6326 17.3301C19.6326 17.032 18.2058 15.6312 17.6092 15.3459C16.909 15.0218 15.547 14.9051 14.7817 15.0865ZM51.8791 16.3838C51.023 16.9541 50.4911 17.3821 50.4264 17.5767C50.3872 17.7454 50.193 19.0682 49.9979 20.5341C49.8169 21.9996 49.4536 24.7104 49.207 26.5519C48.9609 28.3935 48.7662 29.9888 48.7662 30.0928C48.7662 30.2222 49.0776 30.2614 50.1278 30.2614H51.477L51.5545 29.833C51.6585 29.2235 52.2679 24.5545 52.2679 24.3731C52.2679 24.2951 53.1759 25.592 54.2781 27.2521L56.2883 30.2614H57.9096C58.8049 30.2614 59.531 30.2354 59.531 30.2095C59.531 30.1703 58.4284 28.6141 57.0924 26.7333L54.5507 23.1537C54.4859 23.0503 54.9655 22.4536 56.0161 21.3769C56.8854 20.4949 57.5856 19.6908 57.5728 19.6001C57.5728 19.509 57.4689 18.8868 57.3522 18.2121L57.1316 17.006L54.9267 19.4447C53.5647 20.9489 52.7091 21.8049 52.6831 21.6883C52.6572 21.5716 52.8258 20.1704 53.046 18.5627C53.2538 16.9673 53.4353 15.618 53.4353 15.5665C53.4353 15.3979 53.2279 15.5018 51.8791 16.3838ZM24.1329 19.1721C21.63 19.8595 19.5154 22.1682 19.1266 24.6584C18.958 25.7346 17.946 33.413 17.946 33.62C17.946 33.7111 18.3485 33.7631 19.1654 33.7631H20.3847L20.5274 32.7256C20.6049 32.1549 20.7348 31.2214 20.8127 30.6503C20.8902 30.0668 20.9941 29.6256 21.0461 29.652C22.2394 30.3002 22.7454 30.4428 23.8736 30.4948C25.3263 30.5595 26.4417 30.2614 27.6091 29.5089C29.8007 28.0953 31.1235 25.3066 30.6699 23.1018C30.267 21.1303 29.0098 19.7173 27.1674 19.1849C26.3241 18.9387 25.0018 18.9387 24.1329 19.1721ZM25.9617 21.5843C27.1938 21.8442 28.1798 23.0503 28.1925 24.3079C28.1925 25.2938 27.8425 26.0979 27.0384 26.902C26.4804 27.4467 26.1431 27.6673 25.5465 27.8487C23.7437 28.4194 22.1355 27.5766 21.7075 25.8258C21.2795 24.1525 22.6027 22.1423 24.4443 21.6495C25.3263 21.4157 25.2096 21.4157 25.9617 21.5843ZM36.1317 19.1593C33.8361 19.8203 31.7352 21.9604 31.2292 24.1652C30.7493 26.2666 31.5274 28.5229 33.0968 29.6123C34.0308 30.2482 34.9383 30.5208 36.1836 30.5208C37.1563 30.5208 38.285 30.3002 38.6998 30.0276C38.8165 29.9501 39.2965 27.0191 39.2057 26.928C39.1925 26.902 38.9332 27.0707 38.635 27.2913C36.923 28.5493 34.7961 28.1733 33.9268 26.474C33.6027 25.8258 33.6027 24.5549 33.9268 23.8151C35.2369 20.9361 39.2577 20.7283 40.0358 23.5038C40.2172 24.1525 40.1912 25.1767 39.9838 26.7721C39.8799 27.5114 39.7632 28.4454 39.7113 28.8347C39.6725 29.2235 39.6078 29.7035 39.5686 29.8981L39.4911 30.2614H41.9553L42.0328 29.8981C42.3186 28.4586 42.7849 24.2304 42.7206 23.4778C42.6039 21.7275 41.3199 19.9894 39.6725 19.3535C38.7645 19.0034 37.0137 18.8995 36.1317 19.1593ZM46.5596 19.4442C45.833 19.704 44.9254 20.5337 44.5749 21.2475C44.3548 21.701 44.1729 22.7389 43.7841 25.6959C43.5115 27.81 43.2521 29.7035 43.2134 29.8981L43.1614 30.2614H45.7163L45.7943 29.8981C45.8516 29.5884 45.8992 29.2769 45.9369 28.9642C45.9757 28.6401 46.1831 27.0451 46.4037 25.3978C46.8837 21.7922 46.8577 21.8309 48.2717 21.8309H49.2184L49.2959 21.4161C49.3351 21.1955 49.4126 20.6116 49.4646 20.1188L49.5425 19.2368L48.3232 19.25C47.6098 19.25 46.8841 19.3408 46.5596 19.4442Z" fill="#373431"/>
</g>
<defs>
<clipPath id="clip0_440_90120">
<rect width="74" height="33" fill="white" transform="translate(0.427734 0.274414)"/>
</clipPath>
</defs>
</svg>
